M48
; DRILL file {KiCad 9.0.0+dfsg-1} date 2025-05-03T00:49:56+0200
; FORMAT={-:-/ absolute / inch / decimal}
; #@! TF.CreationDate,2025-05-03T00:49:56+02:00
; #@! TF.GenerationSoftware,Kicad,Pcbnew,9.0.0+dfsg-1
; #@! TF.FileFunction,MixedPlating,1,2
FMAT,2
INCH
; #@! TA.AperFunction,Plated,PTH,ComponentDrill
T1C0.0287
; #@! TA.AperFunction,Plated,PTH,ViaDrill
T2C0.0315
; #@! TA.AperFunction,Plated,PTH,ComponentDrill
T3C0.0335
; #@! TA.AperFunction,Plated,PTH,ComponentDrill
T4C0.0394
; #@! TA.AperFunction,Plated,PTH,ComponentDrill
T5C0.0402
; #@! TA.AperFunction,NonPlated,NPTH,ComponentDrill
T6C0.1181
%
G90
G05
T1
X4.7031Y-3.1988
X4.8031Y-3.0988
X4.9031Y-3.1988
T2
X4.3686Y-2.904
X4.3898Y-3.4567
X4.4606Y-3.2008
X4.4606Y-4.2165
X4.6181Y-3.6063
X4.7628Y-3.4321
X4.8Y-3.7189
X4.8031Y-3.1719
X5.1506Y-3.0443
X5.1575Y-3.1969
X5.1575Y-4.2165
T3
X4.7031Y-3.9862
X4.8031Y-3.9862
X4.9031Y-3.9862
T4
X4.4902Y-2.6453
X4.4902Y-2.9453
X4.5276Y-3.9463
X4.5276Y-4.0463
X4.8902Y-2.6453
X5.0902Y-2.6453
X5.0902Y-2.9453
T5
X4.3031Y-2.9695
X4.3031Y-3.0695
X4.3031Y-3.1695
X4.3031Y-3.2695
X4.3031Y-3.3695
X4.3031Y-3.4695
X4.3031Y-3.5695
X4.3031Y-3.6695
X4.3031Y-3.7695
X4.3031Y-3.8695
X4.3031Y-3.9695
X4.3031Y-4.0695
X4.3031Y-4.1695
X4.3031Y-4.2695
X4.3031Y-4.3695
X5.3031Y-2.9695
X5.3031Y-3.0695
X5.3031Y-3.1695
X5.3031Y-3.2695
X5.3031Y-3.3695
X5.3031Y-3.4695
X5.3031Y-3.5695
X5.3031Y-3.6695
X5.3031Y-3.7695
X5.3031Y-3.8695
X5.3031Y-3.9695
X5.3031Y-4.0695
X5.3031Y-4.1695
X5.3031Y-4.2695
X5.3031Y-4.3695
T6
X4.3217Y-2.6561
X4.3217Y-4.5045
X5.2866Y-2.6561
X5.2866Y-4.5045
M30
