%TF.GenerationSoftware,KiCad,Pcbnew,9.0.0+dfsg-1*%
%TF.CreationDate,2025-05-03T00:49:58+02:00*%
%TF.ProjectId,detec_presence_IR,64657465-635f-4707-9265-73656e63655f,rev?*%
%TF.SameCoordinates,Original*%
%TF.FileFunction,Copper,L1,Top*%
%TF.FilePolarity,Positive*%
%FSLAX46Y46*%
G04 Gerber Fmt 4.6, Leading zero omitted, Abs format (unit mm)*
G04 Created by KiCad (PCBNEW 9.0.0+dfsg-1) date 2025-05-03 00:49:58*
%MOMM*%
%LPD*%
G01*
G04 APERTURE LIST*
G04 Aperture macros list*
%AMRoundRect*
0 Rectangle with rounded corners*
0 $1 Rounding radius*
0 $2 $3 $4 $5 $6 $7 $8 $9 X,Y pos of 4 corners*
0 Add a 4 corners polygon primitive as box body*
4,1,4,$2,$3,$4,$5,$6,$7,$8,$9,$2,$3,0*
0 Add four circle primitives for the rounded corners*
1,1,$1+$1,$2,$3*
1,1,$1+$1,$4,$5*
1,1,$1+$1,$6,$7*
1,1,$1+$1,$8,$9*
0 Add four rect primitives between the rounded corners*
20,1,$1+$1,$2,$3,$4,$5,0*
20,1,$1+$1,$4,$5,$6,$7,0*
20,1,$1+$1,$6,$7,$8,$9,0*
20,1,$1+$1,$8,$9,$2,$3,0*%
G04 Aperture macros list end*
%ADD10C,0.450000*%
%TA.AperFunction,SMDPad,CuDef*%
%ADD11RoundRect,0.250000X-0.350000X-0.450000X0.350000X-0.450000X0.350000X0.450000X-0.350000X0.450000X0*%
%TD*%
%TA.AperFunction,SMDPad,CuDef*%
%ADD12RoundRect,0.250000X0.337500X0.475000X-0.337500X0.475000X-0.337500X-0.475000X0.337500X-0.475000X0*%
%TD*%
%TA.AperFunction,SMDPad,CuDef*%
%ADD13RoundRect,0.250000X-0.337500X-0.475000X0.337500X-0.475000X0.337500X0.475000X-0.337500X0.475000X0*%
%TD*%
%TA.AperFunction,SMDPad,CuDef*%
%ADD14RoundRect,0.250000X0.350000X0.450000X-0.350000X0.450000X-0.350000X-0.450000X0.350000X-0.450000X0*%
%TD*%
%TA.AperFunction,ComponentPad*%
%ADD15R,1.508000X1.508000*%
%TD*%
%TA.AperFunction,ComponentPad*%
%ADD16C,1.508000*%
%TD*%
%TA.AperFunction,ComponentPad*%
%ADD17R,1.130000X1.130000*%
%TD*%
%TA.AperFunction,ComponentPad*%
%ADD18C,1.130000*%
%TD*%
%TA.AperFunction,ComponentPad*%
%ADD19R,1.700000X1.700000*%
%TD*%
%TA.AperFunction,ComponentPad*%
%ADD20C,1.700000*%
%TD*%
%TA.AperFunction,ComponentPad*%
%ADD21RoundRect,0.412500X0.412500X0.412500X-0.412500X0.412500X-0.412500X-0.412500X0.412500X-0.412500X0*%
%TD*%
%TA.AperFunction,ComponentPad*%
%ADD22C,1.650000*%
%TD*%
%TA.AperFunction,SMDPad,CuDef*%
%ADD23RoundRect,0.150000X0.825000X0.150000X-0.825000X0.150000X-0.825000X-0.150000X0.825000X-0.150000X0*%
%TD*%
%TA.AperFunction,ComponentPad*%
%ADD24R,2.000000X2.000000*%
%TD*%
%TA.AperFunction,ComponentPad*%
%ADD25C,2.000000*%
%TD*%
%TA.AperFunction,ViaPad*%
%ADD26C,1.600000*%
%TD*%
%TA.AperFunction,Conductor*%
%ADD27C,0.500000*%
%TD*%
G04 APERTURE END LIST*
D10*
G36*
X116677428Y-109146402D02*
G01*
X116638148Y-109185683D01*
X116546886Y-109231314D01*
X116395973Y-109231314D01*
X116304711Y-109185683D01*
X116270632Y-109151604D01*
X116225001Y-109060342D01*
X116225001Y-108909428D01*
X116270631Y-108818166D01*
X116314774Y-108774024D01*
X116348421Y-108751593D01*
X116677428Y-109146402D01*
G37*
G36*
X116603725Y-107909733D02*
G01*
X116627015Y-107956314D01*
X116586513Y-108037318D01*
X116542368Y-108081462D01*
X116502118Y-108108295D01*
X116482144Y-108048372D01*
X116482144Y-107966571D01*
X116510563Y-107909732D01*
X116557143Y-107886442D01*
X116603725Y-107909733D01*
G37*
G36*
X121946430Y-109231314D02*
G01*
X121624544Y-109231314D01*
X121567706Y-109202895D01*
X121539287Y-109146056D01*
X121539287Y-109080857D01*
X121567706Y-109024019D01*
X121624544Y-108995600D01*
X121946430Y-108995600D01*
X121946430Y-109231314D01*
G37*
G36*
X123541409Y-108507147D02*
G01*
X123167858Y-108581857D01*
X123167858Y-108566571D01*
X123196277Y-108509732D01*
X123253115Y-108481314D01*
X123489743Y-108481314D01*
X123541409Y-108507147D01*
G37*
G36*
X126146429Y-109231314D02*
G01*
X125824543Y-109231314D01*
X125767705Y-109202895D01*
X125739286Y-109146056D01*
X125739286Y-109080857D01*
X125767705Y-109024019D01*
X125824543Y-108995600D01*
X126146429Y-108995600D01*
X126146429Y-109231314D01*
G37*
G36*
X120838147Y-105629046D02*
G01*
X120872226Y-105663124D01*
X120917857Y-105754386D01*
X120917857Y-106162443D01*
X120872226Y-106253705D01*
X120838147Y-106287784D01*
X120746885Y-106333415D01*
X120510714Y-106333415D01*
X120510714Y-105583415D01*
X120746885Y-105583415D01*
X120838147Y-105629046D01*
G37*
G36*
X123581004Y-105629046D02*
G01*
X123615083Y-105663124D01*
X123660714Y-105754386D01*
X123660714Y-106162443D01*
X123615083Y-106253705D01*
X123581004Y-106287784D01*
X123489742Y-106333415D01*
X123338828Y-106333415D01*
X123247566Y-106287784D01*
X123213488Y-106253705D01*
X123167857Y-106162443D01*
X123167857Y-105754386D01*
X123213488Y-105663123D01*
X123247566Y-105629046D01*
X123338828Y-105583415D01*
X123489742Y-105583415D01*
X123581004Y-105629046D01*
G37*
G36*
X127484265Y-105609248D02*
G01*
X127110714Y-105683958D01*
X127110714Y-105668672D01*
X127139133Y-105611833D01*
X127195971Y-105583415D01*
X127432599Y-105583415D01*
X127484265Y-105609248D01*
G37*
G36*
X116802114Y-105819129D02*
G01*
X116569314Y-105819129D01*
X116685713Y-105469928D01*
X116802114Y-105819129D01*
G37*
G36*
X128450000Y-109906314D02*
G01*
X115550001Y-109906314D01*
X115550001Y-108856314D01*
X115775001Y-108856314D01*
X115775001Y-109113457D01*
X115779324Y-109157352D01*
X115782417Y-109164821D01*
X115782991Y-109172886D01*
X115798755Y-109214080D01*
X115884469Y-109385508D01*
X115896358Y-109404395D01*
X115898634Y-109409889D01*
X115903709Y-109416073D01*
X115907966Y-109422835D01*
X115912451Y-109426725D01*
X115926616Y-109443984D01*
X116012331Y-109529699D01*
X116029584Y-109543858D01*
X116033479Y-109548349D01*
X116040248Y-109552610D01*
X116046426Y-109557680D01*
X116051913Y-109559952D01*
X116070807Y-109571846D01*
X116242235Y-109657560D01*
X116283429Y-109673324D01*
X116291493Y-109673897D01*
X116298963Y-109676991D01*
X116342858Y-109681314D01*
X116600001Y-109681314D01*
X116643896Y-109676991D01*
X116651365Y-109673897D01*
X116659429Y-109673324D01*
X116700624Y-109657560D01*
X116872052Y-109571846D01*
X116890941Y-109559955D01*
X116896435Y-109557680D01*
X116902618Y-109552605D01*
X116909380Y-109548349D01*
X116913271Y-109543862D01*
X116930530Y-109529698D01*
X116985715Y-109474512D01*
X117040902Y-109529699D01*
X117058160Y-109543862D01*
X117062051Y-109548349D01*
X117068812Y-109552605D01*
X117074997Y-109557681D01*
X117080490Y-109559956D01*
X117099378Y-109571846D01*
X117270807Y-109657560D01*
X117312001Y-109673324D01*
X117320065Y-109673897D01*
X117327535Y-109676991D01*
X117371430Y-109681314D01*
X117457144Y-109681314D01*
X117501039Y-109676991D01*
X117582147Y-109643395D01*
X117644225Y-109581317D01*
X117677821Y-109500209D01*
X117677821Y-109412419D01*
X117644225Y-109331311D01*
X117582147Y-109269233D01*
X117501039Y-109235637D01*
X117457144Y-109231314D01*
X117424544Y-109231314D01*
X117333282Y-109185683D01*
X117264432Y-109116833D01*
X117294287Y-109077028D01*
X117305866Y-109057942D01*
X117309759Y-109053454D01*
X117313018Y-109046153D01*
X117317165Y-109039319D01*
X117318639Y-109033564D01*
X117327741Y-109013179D01*
X117413455Y-108756036D01*
X117418403Y-108734270D01*
X117420678Y-108728780D01*
X117421461Y-108720821D01*
X117423234Y-108713027D01*
X117422812Y-108707102D01*
X117425001Y-108684885D01*
X117425001Y-108513457D01*
X117420678Y-108469562D01*
X117403356Y-108427742D01*
X119289287Y-108427742D01*
X119289287Y-108684885D01*
X119290041Y-108692541D01*
X119289553Y-108695822D01*
X119291981Y-108712246D01*
X119293610Y-108728780D01*
X119294879Y-108731845D01*
X119296005Y-108739455D01*
X119381719Y-109082313D01*
X119382875Y-109085551D01*
X119382991Y-109087170D01*
X119389977Y-109105427D01*
X119396559Y-109123848D01*
X119397525Y-109125152D01*
X119398755Y-109128365D01*
X119484469Y-109299793D01*
X119496357Y-109318680D01*
X119498634Y-109324175D01*
X119503710Y-109330360D01*
X119507966Y-109337121D01*
X119512452Y-109341011D01*
X119526616Y-109358270D01*
X119698045Y-109529699D01*
X119732140Y-109557681D01*
X119739611Y-109560775D01*
X119745718Y-109566072D01*
X119785993Y-109584054D01*
X120043136Y-109669768D01*
X120064901Y-109674716D01*
X120070392Y-109676991D01*
X120078350Y-109677774D01*
X120086145Y-109679547D01*
X120092069Y-109679125D01*
X120114287Y-109681314D01*
X120285715Y-109681314D01*
X120307931Y-109679125D01*
X120313856Y-109679547D01*
X120321649Y-109677774D01*
X120329610Y-109676991D01*
X120335100Y-109674716D01*
X120356866Y-109669768D01*
X120614009Y-109584054D01*
X120654284Y-109566072D01*
X120660392Y-109560774D01*
X120667863Y-109557680D01*
X120701958Y-109529698D01*
X120787672Y-109443983D01*
X120815654Y-109409887D01*
X120842577Y-109344887D01*
X120849249Y-109328780D01*
X120853572Y-109284885D01*
X120853572Y-109027742D01*
X121089287Y-109027742D01*
X121089287Y-109199171D01*
X121093610Y-109243066D01*
X121096703Y-109250535D01*
X121097277Y-109258599D01*
X121113041Y-109299794D01*
X121198755Y-109471222D01*
X121203373Y-109478559D01*
X121204530Y-109482028D01*
X121208275Y-109486346D01*
X121222252Y-109508550D01*
X121243565Y-109527035D01*
X121262051Y-109548349D01*
X121284256Y-109562326D01*
X121288573Y-109566071D01*
X121292039Y-109567226D01*
X121299378Y-109571846D01*
X121470807Y-109657560D01*
X121512001Y-109673324D01*
X121520065Y-109673897D01*
X121527535Y-109676991D01*
X121571430Y-109681314D01*
X122000001Y-109681314D01*
X122043896Y-109676991D01*
X122051365Y-109673897D01*
X122059429Y-109673324D01*
X122090228Y-109661538D01*
X122127535Y-109676991D01*
X122215325Y-109676991D01*
X122296433Y-109643395D01*
X122358511Y-109581317D01*
X122392107Y-109500209D01*
X122396430Y-109456314D01*
X122396430Y-108513457D01*
X122717858Y-108513457D01*
X122717858Y-109199171D01*
X122722181Y-109243066D01*
X122725274Y-109250535D01*
X122725848Y-109258599D01*
X122741612Y-109299794D01*
X122827326Y-109471222D01*
X122831944Y-109478559D01*
X122833101Y-109482028D01*
X122836846Y-109486346D01*
X122850823Y-109508550D01*
X122872136Y-109527035D01*
X122890622Y-109548349D01*
X122912827Y-109562326D01*
X122917144Y-109566071D01*
X122920610Y-109567226D01*
X122927949Y-109571846D01*
X123099378Y-109657560D01*
X123140572Y-109673324D01*
X123148636Y-109673897D01*
X123156106Y-109676991D01*
X123200001Y-109681314D01*
X123542858Y-109681314D01*
X123586753Y-109676991D01*
X123594222Y-109673897D01*
X123602287Y-109673324D01*
X123643481Y-109657560D01*
X123814909Y-109571846D01*
X123852236Y-109548349D01*
X123909757Y-109482027D01*
X123937519Y-109398741D01*
X123931296Y-109311171D01*
X123892035Y-109232650D01*
X123825713Y-109175129D01*
X123742427Y-109147367D01*
X123654857Y-109153590D01*
X123613663Y-109169354D01*
X123489743Y-109231314D01*
X123253115Y-109231314D01*
X123196277Y-109202895D01*
X123167858Y-109146056D01*
X123167858Y-109040770D01*
X123844127Y-108905516D01*
X123886322Y-108892668D01*
X123904638Y-108880401D01*
X123925004Y-108871966D01*
X123940756Y-108856213D01*
X123959266Y-108843818D01*
X123971494Y-108825476D01*
X123987082Y-108809888D01*
X123995607Y-108789305D01*
X124007964Y-108770771D01*
X124012241Y-108749146D01*
X124020678Y-108728780D01*
X124025001Y-108684885D01*
X124025001Y-108513457D01*
X124020678Y-108469562D01*
X124017584Y-108462092D01*
X124017011Y-108454028D01*
X124001247Y-108412834D01*
X123915532Y-108241404D01*
X123910911Y-108234063D01*
X123909757Y-108230601D01*
X123906017Y-108226289D01*
X123897286Y-108212419D01*
X124093609Y-108212419D01*
X124093609Y-108300209D01*
X124127205Y-108381317D01*
X124189283Y-108443395D01*
X124270391Y-108476991D01*
X124314286Y-108481314D01*
X124346429Y-108481314D01*
X124346429Y-109199171D01*
X124350752Y-109243066D01*
X124353845Y-109250535D01*
X124354419Y-109258599D01*
X124370183Y-109299794D01*
X124455897Y-109471222D01*
X124460515Y-109478559D01*
X124461672Y-109482028D01*
X124465417Y-109486346D01*
X124479394Y-109508550D01*
X124500707Y-109527035D01*
X124519193Y-109548349D01*
X124541398Y-109562326D01*
X124545715Y-109566071D01*
X124549181Y-109567226D01*
X124556520Y-109571846D01*
X124727949Y-109657560D01*
X124769143Y-109673324D01*
X124777207Y-109673897D01*
X124784677Y-109676991D01*
X124828572Y-109681314D01*
X125000000Y-109681314D01*
X125043895Y-109676991D01*
X125125003Y-109643395D01*
X125187081Y-109581317D01*
X125220677Y-109500209D01*
X125220677Y-109412419D01*
X125187081Y-109331311D01*
X125125003Y-109269233D01*
X125043895Y-109235637D01*
X125000000Y-109231314D01*
X124881686Y-109231314D01*
X124824848Y-109202895D01*
X124796429Y-109146056D01*
X124796429Y-109027742D01*
X125289286Y-109027742D01*
X125289286Y-109199171D01*
X125293609Y-109243066D01*
X125296702Y-109250535D01*
X125297276Y-109258599D01*
X125313040Y-109299794D01*
X125398754Y-109471222D01*
X125403372Y-109478559D01*
X125404529Y-109482028D01*
X125408274Y-109486346D01*
X125422251Y-109508550D01*
X125443564Y-109527035D01*
X125462050Y-109548349D01*
X125484255Y-109562326D01*
X125488572Y-109566071D01*
X125492038Y-109567226D01*
X125499377Y-109571846D01*
X125670806Y-109657560D01*
X125712000Y-109673324D01*
X125720064Y-109673897D01*
X125727534Y-109676991D01*
X125771429Y-109681314D01*
X126200000Y-109681314D01*
X126243895Y-109676991D01*
X126251364Y-109673897D01*
X126259428Y-109673324D01*
X126290227Y-109661538D01*
X126327534Y-109676991D01*
X126415324Y-109676991D01*
X126496432Y-109643395D01*
X126558510Y-109581317D01*
X126592106Y-109500209D01*
X126596429Y-109456314D01*
X126596429Y-108513457D01*
X126592106Y-108469562D01*
X126589012Y-108462092D01*
X126588439Y-108454028D01*
X126572675Y-108412834D01*
X126494415Y-108256314D01*
X127003571Y-108256314D01*
X127003571Y-109456314D01*
X127007894Y-109500209D01*
X127041490Y-109581317D01*
X127103568Y-109643395D01*
X127184676Y-109676991D01*
X127272466Y-109676991D01*
X127353574Y-109643395D01*
X127415652Y-109581317D01*
X127449248Y-109500209D01*
X127453571Y-109456314D01*
X127453571Y-108523942D01*
X127538828Y-108481314D01*
X127689742Y-108481314D01*
X127746579Y-108509732D01*
X127775000Y-108566573D01*
X127775000Y-109456314D01*
X127779323Y-109500209D01*
X127812919Y-109581317D01*
X127874997Y-109643395D01*
X127956105Y-109676991D01*
X128043895Y-109676991D01*
X128125003Y-109643395D01*
X128187081Y-109581317D01*
X128220677Y-109500209D01*
X128225000Y-109456314D01*
X128225000Y-108513457D01*
X128220677Y-108469562D01*
X128217583Y-108462092D01*
X128217010Y-108454028D01*
X128201246Y-108412834D01*
X128115531Y-108241404D01*
X128110910Y-108234063D01*
X128109756Y-108230601D01*
X128106016Y-108226289D01*
X128092034Y-108204077D01*
X128070716Y-108185588D01*
X128052235Y-108164279D01*
X128030030Y-108150301D01*
X128025712Y-108146556D01*
X128022244Y-108145400D01*
X128014908Y-108140782D01*
X127843480Y-108055068D01*
X127802286Y-108039304D01*
X127794221Y-108038730D01*
X127786752Y-108035637D01*
X127742857Y-108031314D01*
X127485714Y-108031314D01*
X127441819Y-108035637D01*
X127434349Y-108038730D01*
X127426285Y-108039304D01*
X127385091Y-108055068D01*
X127354636Y-108070295D01*
X127353574Y-108069233D01*
X127272466Y-108035637D01*
X127184676Y-108035637D01*
X127103568Y-108069233D01*
X127041490Y-108131311D01*
X127007894Y-108212419D01*
X127003571Y-108256314D01*
X126494415Y-108256314D01*
X126486960Y-108241404D01*
X126482339Y-108234063D01*
X126481185Y-108230601D01*
X126477445Y-108226289D01*
X126463463Y-108204077D01*
X126442145Y-108185588D01*
X126423664Y-108164279D01*
X126401459Y-108150301D01*
X126397141Y-108146556D01*
X126393673Y-108145400D01*
X126386337Y-108140782D01*
X126214909Y-108055068D01*
X126173715Y-108039304D01*
X126165650Y-108038730D01*
X126158181Y-108035637D01*
X126114286Y-108031314D01*
X125771429Y-108031314D01*
X125727534Y-108035637D01*
X125720064Y-108038730D01*
X125712000Y-108039304D01*
X125670806Y-108055068D01*
X125499377Y-108140782D01*
X125462050Y-108164279D01*
X125404529Y-108230600D01*
X125376767Y-108313887D01*
X125382990Y-108401456D01*
X125422251Y-108479978D01*
X125488572Y-108537499D01*
X125571859Y-108565261D01*
X125659428Y-108559038D01*
X125700623Y-108543274D01*
X125824543Y-108481314D01*
X126061171Y-108481314D01*
X126118008Y-108509732D01*
X126135942Y-108545600D01*
X125771429Y-108545600D01*
X125727534Y-108549923D01*
X125720064Y-108553016D01*
X125712000Y-108553590D01*
X125670806Y-108569354D01*
X125499377Y-108655068D01*
X125492037Y-108659688D01*
X125488573Y-108660843D01*
X125484258Y-108664584D01*
X125462050Y-108678565D01*
X125443563Y-108699879D01*
X125422251Y-108718364D01*
X125408273Y-108740569D01*
X125404529Y-108744886D01*
X125403373Y-108748352D01*
X125398754Y-108755691D01*
X125313040Y-108927119D01*
X125297276Y-108968313D01*
X125296702Y-108976377D01*
X125293609Y-108983847D01*
X125289286Y-109027742D01*
X124796429Y-109027742D01*
X124796429Y-108481314D01*
X125000000Y-108481314D01*
X125043895Y-108476991D01*
X125125003Y-108443395D01*
X125187081Y-108381317D01*
X125220677Y-108300209D01*
X125220677Y-108212419D01*
X125187081Y-108131311D01*
X125125003Y-108069233D01*
X125043895Y-108035637D01*
X125000000Y-108031314D01*
X124796429Y-108031314D01*
X124796429Y-107656314D01*
X124792106Y-107612419D01*
X124758510Y-107531311D01*
X124696432Y-107469233D01*
X124615324Y-107435637D01*
X124527534Y-107435637D01*
X124446426Y-107469233D01*
X124384348Y-107531311D01*
X124350752Y-107612419D01*
X124346429Y-107656314D01*
X124346429Y-108031314D01*
X124314286Y-108031314D01*
X124270391Y-108035637D01*
X124189283Y-108069233D01*
X124127205Y-108131311D01*
X124093609Y-108212419D01*
X123897286Y-108212419D01*
X123892035Y-108204077D01*
X123870717Y-108185588D01*
X123852236Y-108164279D01*
X123830031Y-108150301D01*
X123825713Y-108146556D01*
X123822245Y-108145400D01*
X123814909Y-108140782D01*
X123643481Y-108055068D01*
X123602287Y-108039304D01*
X123594222Y-108038730D01*
X123586753Y-108035637D01*
X123542858Y-108031314D01*
X123200001Y-108031314D01*
X123156106Y-108035637D01*
X123148636Y-108038730D01*
X123140572Y-108039304D01*
X123099378Y-108055068D01*
X122927949Y-108140782D01*
X122920610Y-108145401D01*
X122917144Y-108146557D01*
X122912827Y-108150301D01*
X122890622Y-108164279D01*
X122872136Y-108185592D01*
X122850823Y-108204078D01*
X122836846Y-108226281D01*
X122833101Y-108230600D01*
X122831944Y-108234068D01*
X122827326Y-108241406D01*
X122741612Y-108412834D01*
X122725848Y-108454029D01*
X122725274Y-108462092D01*
X122722181Y-108469562D01*
X122717858Y-108513457D01*
X122396430Y-108513457D01*
X122392107Y-108469562D01*
X122389013Y-108462092D01*
X122388440Y-108454028D01*
X122372676Y-108412834D01*
X122286961Y-108241404D01*
X122282340Y-108234063D01*
X122281186Y-108230601D01*
X122277446Y-108226289D01*
X122263464Y-108204077D01*
X122242146Y-108185588D01*
X122223665Y-108164279D01*
X122201460Y-108150301D01*
X122197142Y-108146556D01*
X122193674Y-108145400D01*
X122186338Y-108140782D01*
X122014910Y-108055068D01*
X121973716Y-108039304D01*
X121965651Y-108038730D01*
X121958182Y-108035637D01*
X121914287Y-108031314D01*
X121571430Y-108031314D01*
X121527535Y-108035637D01*
X121520065Y-108038730D01*
X121512001Y-108039304D01*
X121470807Y-108055068D01*
X121299378Y-108140782D01*
X121262051Y-108164279D01*
X121204530Y-108230600D01*
X121176768Y-108313887D01*
X121182991Y-108401456D01*
X121222252Y-108479978D01*
X121288573Y-108537499D01*
X121371860Y-108565261D01*
X121459429Y-108559038D01*
X121500624Y-108543274D01*
X121624544Y-108481314D01*
X121861172Y-108481314D01*
X121918009Y-108509732D01*
X121935943Y-108545600D01*
X121571430Y-108545600D01*
X121527535Y-108549923D01*
X121520065Y-108553016D01*
X121512001Y-108553590D01*
X121470807Y-108569354D01*
X121299378Y-108655068D01*
X121292038Y-108659688D01*
X121288574Y-108660843D01*
X121284259Y-108664584D01*
X121262051Y-108678565D01*
X121243564Y-108699879D01*
X121222252Y-108718364D01*
X121208274Y-108740569D01*
X121204530Y-108744886D01*
X121203374Y-108748352D01*
X121198755Y-108755691D01*
X121113041Y-108927119D01*
X121097277Y-108968313D01*
X121096703Y-108976377D01*
X121093610Y-108983847D01*
X121089287Y-109027742D01*
X120853572Y-109027742D01*
X120853572Y-108684885D01*
X120849249Y-108640990D01*
X120815653Y-108559882D01*
X120753575Y-108497804D01*
X120672467Y-108464208D01*
X120628572Y-108459885D01*
X120285715Y-108459885D01*
X120241820Y-108464208D01*
X120160712Y-108497804D01*
X120098634Y-108559882D01*
X120065038Y-108640990D01*
X120065038Y-108728780D01*
X120098634Y-108809888D01*
X120160712Y-108871966D01*
X120241820Y-108905562D01*
X120285715Y-108909885D01*
X120403572Y-108909885D01*
X120403572Y-109179857D01*
X120249202Y-109231314D01*
X120150800Y-109231314D01*
X119978684Y-109173942D01*
X119870632Y-109065890D01*
X119812292Y-108949210D01*
X119739287Y-108657187D01*
X119739287Y-108455439D01*
X119812292Y-108163416D01*
X119870632Y-108046738D01*
X119978684Y-107938685D01*
X120150800Y-107881314D01*
X120318315Y-107881314D01*
X120442235Y-107943274D01*
X120483429Y-107959038D01*
X120570999Y-107965261D01*
X120654285Y-107937499D01*
X120720607Y-107879978D01*
X120759868Y-107801457D01*
X120766091Y-107713887D01*
X120760839Y-107698132D01*
X122722181Y-107698132D01*
X122722181Y-107785924D01*
X122755777Y-107867032D01*
X122783759Y-107901127D01*
X122869473Y-107986841D01*
X122903568Y-108014823D01*
X122984676Y-108048419D01*
X122984677Y-108048419D01*
X123072467Y-108048419D01*
X123072468Y-108048419D01*
X123153576Y-108014823D01*
X123153577Y-108014822D01*
X123187671Y-107986841D01*
X123273385Y-107901127D01*
X123301367Y-107867032D01*
X123334963Y-107785924D01*
X123334963Y-107698132D01*
X123407895Y-107698132D01*
X123407895Y-107785924D01*
X123441491Y-107867032D01*
X123469473Y-107901127D01*
X123555187Y-107986841D01*
X123589282Y-108014823D01*
X123670390Y-108048419D01*
X123670391Y-108048419D01*
X123758180Y-108048419D01*
X123758181Y-108048419D01*
X123758182Y-108048419D01*
X123839290Y-108014823D01*
X123839294Y-108014818D01*
X123873384Y-107986842D01*
X123959099Y-107901128D01*
X123987081Y-107867033D01*
X123987083Y-107867031D01*
X124008463Y-107815413D01*
X124020678Y-107785925D01*
X124020678Y-107698133D01*
X124020678Y-107698132D01*
X124020678Y-107698131D01*
X124006762Y-107664536D01*
X123987083Y-107617025D01*
X123987081Y-107617023D01*
X123959099Y-107582928D01*
X123873384Y-107497214D01*
X123839294Y-107469237D01*
X123839290Y-107469233D01*
X123758182Y-107435637D01*
X123670390Y-107435637D01*
X123589282Y-107469233D01*
X123555187Y-107497215D01*
X123469473Y-107582929D01*
X123441492Y-107617023D01*
X123441491Y-107617024D01*
X123407895Y-107698132D01*
X123334963Y-107698132D01*
X123301367Y-107617024D01*
X123301366Y-107617023D01*
X123273385Y-107582929D01*
X123187671Y-107497215D01*
X123153576Y-107469233D01*
X123072468Y-107435637D01*
X122984676Y-107435637D01*
X122903568Y-107469233D01*
X122869473Y-107497215D01*
X122783759Y-107582929D01*
X122755778Y-107617023D01*
X122755777Y-107617024D01*
X122722181Y-107698132D01*
X120760839Y-107698132D01*
X120738329Y-107630601D01*
X120680808Y-107564279D01*
X120643481Y-107540782D01*
X120472053Y-107455068D01*
X120430859Y-107439304D01*
X120422794Y-107438730D01*
X120415325Y-107435637D01*
X120371430Y-107431314D01*
X120114287Y-107431314D01*
X120092069Y-107433502D01*
X120086145Y-107433081D01*
X120078350Y-107434853D01*
X120070392Y-107435637D01*
X120064901Y-107437911D01*
X120043136Y-107442860D01*
X119785993Y-107528574D01*
X119745718Y-107546556D01*
X119739611Y-107551852D01*
X119732140Y-107554947D01*
X119698045Y-107582929D01*
X119526616Y-107754358D01*
X119512451Y-107771616D01*
X119507966Y-107775507D01*
X119503709Y-107782268D01*
X119498634Y-107788453D01*
X119496358Y-107793946D01*
X119484469Y-107812834D01*
X119398755Y-107984262D01*
X119397525Y-107987474D01*
X119396559Y-107988779D01*
X119389980Y-108007191D01*
X119382991Y-108025456D01*
X119382875Y-108027076D01*
X119381719Y-108030314D01*
X119296005Y-108373172D01*
X119294879Y-108380781D01*
X119293610Y-108383847D01*
X119291981Y-108400380D01*
X119289553Y-108416805D01*
X119290041Y-108420085D01*
X119289287Y-108427742D01*
X117403356Y-108427742D01*
X117387082Y-108388454D01*
X117325004Y-108326376D01*
X117243896Y-108292780D01*
X117156106Y-108292780D01*
X117074998Y-108326376D01*
X117012920Y-108388454D01*
X116979324Y-108469562D01*
X116975001Y-108513457D01*
X116975001Y-108648372D01*
X116938764Y-108757083D01*
X116724986Y-108500549D01*
X116810523Y-108443525D01*
X116810644Y-108443425D01*
X116810718Y-108443395D01*
X116827428Y-108429680D01*
X116844648Y-108415580D01*
X116844693Y-108415512D01*
X116844813Y-108415414D01*
X116930528Y-108329700D01*
X116944692Y-108312441D01*
X116949179Y-108308550D01*
X116953435Y-108301787D01*
X116958510Y-108295605D01*
X116960784Y-108290112D01*
X116972676Y-108271223D01*
X117058390Y-108099794D01*
X117074154Y-108058600D01*
X117074727Y-108050535D01*
X117077821Y-108043066D01*
X117082144Y-107999171D01*
X117082144Y-107913457D01*
X117077821Y-107869562D01*
X117074727Y-107862092D01*
X117074154Y-107854028D01*
X117058390Y-107812834D01*
X116972676Y-107641405D01*
X116968056Y-107634066D01*
X116966901Y-107630600D01*
X116963156Y-107626283D01*
X116949179Y-107604078D01*
X116927865Y-107585592D01*
X116909380Y-107564279D01*
X116887176Y-107550302D01*
X116882858Y-107546557D01*
X116879389Y-107545400D01*
X116872052Y-107540782D01*
X116700624Y-107455068D01*
X116659429Y-107439304D01*
X116651365Y-107438730D01*
X116643896Y-107435637D01*
X116600001Y-107431314D01*
X116514287Y-107431314D01*
X116470392Y-107435637D01*
X116462922Y-107438730D01*
X116454858Y-107439304D01*
X116413664Y-107455068D01*
X116242235Y-107540782D01*
X116234896Y-107545401D01*
X116231430Y-107546557D01*
X116227113Y-107550301D01*
X116204908Y-107564279D01*
X116186422Y-107585592D01*
X116165109Y-107604078D01*
X116151132Y-107626281D01*
X116147387Y-107630600D01*
X116146230Y-107634068D01*
X116141612Y-107641406D01*
X116055898Y-107812834D01*
X116040134Y-107854029D01*
X116039560Y-107862092D01*
X116036467Y-107869562D01*
X116032144Y-107913457D01*
X116032144Y-108084885D01*
X116034332Y-108107101D01*
X116033911Y-108113026D01*
X116035683Y-108120819D01*
X116036467Y-108128780D01*
X116038741Y-108134270D01*
X116043690Y-108156036D01*
X116114020Y-108367027D01*
X116046622Y-108411960D01*
X116046501Y-108412058D01*
X116046428Y-108412089D01*
X116029433Y-108426036D01*
X116012498Y-108439905D01*
X116012453Y-108439971D01*
X116012332Y-108440071D01*
X115926617Y-108525785D01*
X115912452Y-108543043D01*
X115907966Y-108546935D01*
X115903709Y-108553696D01*
X115898635Y-108559880D01*
X115896359Y-108565373D01*
X115884469Y-108584263D01*
X115798755Y-108755691D01*
X115782991Y-108796886D01*
X115782417Y-108804949D01*
X115779324Y-108812419D01*
X115775001Y-108856314D01*
X115550001Y-108856314D01*
X115550001Y-106530273D01*
X115862481Y-106530273D01*
X115868704Y-106617843D01*
X115907966Y-106696366D01*
X115974287Y-106753887D01*
X116057572Y-106781648D01*
X116145142Y-106775425D01*
X116223665Y-106736163D01*
X116281186Y-106669842D01*
X116299168Y-106629566D01*
X116419314Y-106269129D01*
X116952114Y-106269129D01*
X117072260Y-106629567D01*
X117090242Y-106669842D01*
X117147763Y-106736164D01*
X117226286Y-106775425D01*
X117313856Y-106781649D01*
X117397141Y-106753887D01*
X117463463Y-106696367D01*
X117502724Y-106617843D01*
X117508948Y-106530274D01*
X117499168Y-106487264D01*
X117122885Y-105358415D01*
X117660714Y-105358415D01*
X117660714Y-106558415D01*
X117665037Y-106602310D01*
X117698633Y-106683418D01*
X117760711Y-106745496D01*
X117841819Y-106779092D01*
X117929609Y-106779092D01*
X118010717Y-106745496D01*
X118072795Y-106683418D01*
X118106391Y-106602310D01*
X118110714Y-106558415D01*
X118110714Y-105626043D01*
X118195971Y-105583415D01*
X118346885Y-105583415D01*
X118403722Y-105611833D01*
X118432143Y-105668674D01*
X118432143Y-106558415D01*
X118436466Y-106602310D01*
X118470062Y-106683418D01*
X118532140Y-106745496D01*
X118613248Y-106779092D01*
X118701038Y-106779092D01*
X118782146Y-106745496D01*
X118844224Y-106683418D01*
X118877820Y-106602310D01*
X118882143Y-106558415D01*
X118882143Y-105668672D01*
X118910562Y-105611833D01*
X118967400Y-105583415D01*
X119118313Y-105583415D01*
X119175152Y-105611834D01*
X119203571Y-105668672D01*
X119203571Y-106558415D01*
X119207894Y-106602310D01*
X119241490Y-106683418D01*
X119303568Y-106745496D01*
X119384676Y-106779092D01*
X119472466Y-106779092D01*
X119553574Y-106745496D01*
X119615652Y-106683418D01*
X119649248Y-106602310D01*
X119653571Y-106558415D01*
X119653571Y-105615558D01*
X119649248Y-105571663D01*
X119646154Y-105564193D01*
X119645581Y-105556129D01*
X119629817Y-105514935D01*
X119544103Y-105343506D01*
X119539483Y-105336167D01*
X119538328Y-105332701D01*
X119534583Y-105328384D01*
X119520606Y-105306179D01*
X119499292Y-105287693D01*
X119480807Y-105266380D01*
X119458603Y-105252403D01*
X119454285Y-105248658D01*
X119450816Y-105247501D01*
X119443479Y-105242883D01*
X119272051Y-105157169D01*
X119230856Y-105141405D01*
X119222792Y-105140831D01*
X119215323Y-105137738D01*
X119171428Y-105133415D01*
X118914285Y-105133415D01*
X118870390Y-105137738D01*
X118862920Y-105140831D01*
X118854856Y-105141405D01*
X118813662Y-105157169D01*
X118657142Y-105235428D01*
X118500623Y-105157169D01*
X118459429Y-105141405D01*
X118451364Y-105140831D01*
X118443895Y-105137738D01*
X118400000Y-105133415D01*
X118142857Y-105133415D01*
X118098962Y-105137738D01*
X118091492Y-105140831D01*
X118083428Y-105141405D01*
X118042234Y-105157169D01*
X118011779Y-105172396D01*
X118010717Y-105171334D01*
X117929609Y-105137738D01*
X117841819Y-105137738D01*
X117760711Y-105171334D01*
X117698633Y-105233412D01*
X117665037Y-105314520D01*
X117660714Y-105358415D01*
X117122885Y-105358415D01*
X116922885Y-104758415D01*
X120060714Y-104758415D01*
X120060714Y-106558415D01*
X120065037Y-106602310D01*
X120098633Y-106683418D01*
X120160711Y-106745496D01*
X120241819Y-106779092D01*
X120329609Y-106779092D01*
X120366915Y-106763639D01*
X120397714Y-106775425D01*
X120405778Y-106775998D01*
X120413248Y-106779092D01*
X120457143Y-106783415D01*
X120800000Y-106783415D01*
X120843895Y-106779092D01*
X120851364Y-106775998D01*
X120859429Y-106775425D01*
X120900623Y-106759661D01*
X121072051Y-106673947D01*
X121090938Y-106662057D01*
X121096432Y-106659782D01*
X121102616Y-106654706D01*
X121109378Y-106650450D01*
X121113268Y-106645964D01*
X121130527Y-106631800D01*
X121216242Y-106546085D01*
X121230401Y-106528831D01*
X121234892Y-106524937D01*
X121239153Y-106518167D01*
X121244223Y-106511990D01*
X121246495Y-106506502D01*
X121258389Y-106487609D01*
X121344103Y-106316181D01*
X121359867Y-106274987D01*
X121360440Y-106266922D01*
X121363534Y-106259453D01*
X121367857Y-106215558D01*
X121367857Y-105701272D01*
X121363534Y-105657377D01*
X121360440Y-105649907D01*
X121359867Y-105641843D01*
X121344103Y-105600649D01*
X121258389Y-105429220D01*
X121246497Y-105410330D01*
X121244223Y-105404838D01*
X121239148Y-105398655D01*
X121234892Y-105391893D01*
X121230405Y-105388001D01*
X121216241Y-105370743D01*
X121203913Y-105358415D01*
X121689285Y-105358415D01*
X121689285Y-106558415D01*
X121693608Y-106602310D01*
X121727204Y-106683418D01*
X121789282Y-106745496D01*
X121870390Y-106779092D01*
X121958180Y-106779092D01*
X122039288Y-106745496D01*
X122101366Y-106683418D01*
X122134962Y-106602310D01*
X122139285Y-106558415D01*
X122139285Y-105754386D01*
X122165841Y-105701272D01*
X122717857Y-105701272D01*
X122717857Y-106215558D01*
X122722180Y-106259453D01*
X122725273Y-106266922D01*
X122725847Y-106274987D01*
X122741611Y-106316181D01*
X122827325Y-106487609D01*
X122839215Y-106506498D01*
X122841490Y-106511989D01*
X122846563Y-106518171D01*
X122850822Y-106524936D01*
X122855309Y-106528827D01*
X122869471Y-106546084D01*
X122955185Y-106631799D01*
X122972443Y-106645963D01*
X122976335Y-106650450D01*
X122983097Y-106654706D01*
X122989280Y-106659781D01*
X122994772Y-106662055D01*
X123013662Y-106673947D01*
X123185091Y-106759661D01*
X123226285Y-106775425D01*
X123234349Y-106775998D01*
X123241819Y-106779092D01*
X123285714Y-106783415D01*
X123542857Y-106783415D01*
X123586752Y-106779092D01*
X123594221Y-106775998D01*
X123602286Y-106775425D01*
X123643480Y-106759661D01*
X123814908Y-106673947D01*
X123833795Y-106662057D01*
X123839289Y-106659782D01*
X123845473Y-106654706D01*
X123852235Y-106650450D01*
X123856125Y-106645964D01*
X123873384Y-106631800D01*
X123959099Y-106546085D01*
X123973258Y-106528831D01*
X123977749Y-106524937D01*
X123982010Y-106518167D01*
X123987080Y-106511990D01*
X123989352Y-106506502D01*
X124001246Y-106487609D01*
X124086960Y-106316181D01*
X124102724Y-106274987D01*
X124103297Y-106266922D01*
X124106391Y-106259453D01*
X124110714Y-106215558D01*
X124110714Y-105701272D01*
X124106391Y-105657377D01*
X124103297Y-105649907D01*
X124102724Y-105641843D01*
X124086960Y-105600649D01*
X124001246Y-105429220D01*
X123989354Y-105410330D01*
X123987080Y-105404838D01*
X123982005Y-105398655D01*
X123977749Y-105391893D01*
X123973262Y-105388001D01*
X123959098Y-105370743D01*
X123873383Y-105285029D01*
X123856126Y-105270867D01*
X123852235Y-105266380D01*
X123845470Y-105262121D01*
X123839288Y-105257048D01*
X123833797Y-105254773D01*
X123814908Y-105242883D01*
X123643480Y-105157169D01*
X123602286Y-105141405D01*
X123594221Y-105140831D01*
X123586752Y-105137738D01*
X123542857Y-105133415D01*
X123285714Y-105133415D01*
X123241819Y-105137738D01*
X123234349Y-105140831D01*
X123226285Y-105141405D01*
X123185091Y-105157169D01*
X123013662Y-105242883D01*
X122994774Y-105254772D01*
X122989281Y-105257048D01*
X122983096Y-105262123D01*
X122976335Y-105266380D01*
X122972444Y-105270866D01*
X122955186Y-105285030D01*
X122869472Y-105370744D01*
X122855308Y-105388002D01*
X122850822Y-105391893D01*
X122846566Y-105398653D01*
X122841490Y-105404839D01*
X122839213Y-105410333D01*
X122827325Y-105429221D01*
X122741611Y-105600649D01*
X122725847Y-105641844D01*
X122725273Y-105649907D01*
X122722180Y-105657377D01*
X122717857Y-105701272D01*
X122165841Y-105701272D01*
X122184915Y-105663124D01*
X122218994Y-105629046D01*
X122310257Y-105583415D01*
X122428571Y-105583415D01*
X122472466Y-105579092D01*
X122553574Y-105545496D01*
X122615652Y-105483418D01*
X122649248Y-105402310D01*
X122649248Y-105314520D01*
X122615652Y-105233412D01*
X122553574Y-105171334D01*
X122472466Y-105137738D01*
X122428571Y-105133415D01*
X122257142Y-105133415D01*
X122213247Y-105137738D01*
X122205777Y-105140831D01*
X122197713Y-105141405D01*
X122156519Y-105157169D01*
X122068921Y-105200967D01*
X122039288Y-105171334D01*
X121958180Y-105137738D01*
X121870390Y-105137738D01*
X121789282Y-105171334D01*
X121727204Y-105233412D01*
X121693608Y-105314520D01*
X121689285Y-105358415D01*
X121203913Y-105358415D01*
X121130526Y-105285029D01*
X121113269Y-105270867D01*
X121109378Y-105266380D01*
X121102613Y-105262121D01*
X121096431Y-105257048D01*
X121090940Y-105254773D01*
X121072051Y-105242883D01*
X120900623Y-105157169D01*
X120859429Y-105141405D01*
X120851364Y-105140831D01*
X120843895Y-105137738D01*
X120800000Y-105133415D01*
X120510714Y-105133415D01*
X120510714Y-104800233D01*
X124350751Y-104800233D01*
X124350751Y-104888025D01*
X124384347Y-104969133D01*
X124412329Y-105003228D01*
X124498043Y-105088942D01*
X124532138Y-105116924D01*
X124597817Y-105144129D01*
X124532139Y-105171334D01*
X124470061Y-105233412D01*
X124436465Y-105314520D01*
X124432142Y-105358415D01*
X124432142Y-106558415D01*
X124436465Y-106602310D01*
X124470061Y-106683418D01*
X124532139Y-106745496D01*
X124613247Y-106779092D01*
X124701037Y-106779092D01*
X124782145Y-106745496D01*
X124844223Y-106683418D01*
X124877819Y-106602310D01*
X124882142Y-106558415D01*
X124882142Y-105615558D01*
X125203571Y-105615558D01*
X125203571Y-105701272D01*
X125207894Y-105745167D01*
X125210987Y-105752636D01*
X125211561Y-105760700D01*
X125227325Y-105801895D01*
X125313039Y-105973323D01*
X125317657Y-105980660D01*
X125318814Y-105984129D01*
X125322559Y-105988447D01*
X125336536Y-106010651D01*
X125357849Y-106029136D01*
X125376335Y-106050450D01*
X125398540Y-106064427D01*
X125402857Y-106068172D01*
X125406323Y-106069327D01*
X125413662Y-106073947D01*
X125585091Y-106159661D01*
X125626285Y-106175425D01*
X125634349Y-106175998D01*
X125641819Y-106179092D01*
X125685714Y-106183415D01*
X125889741Y-106183415D01*
X125946580Y-106211834D01*
X125969870Y-106258415D01*
X125946580Y-106304995D01*
X125889741Y-106333415D01*
X125653114Y-106333415D01*
X125529194Y-106271455D01*
X125488000Y-106255691D01*
X125400430Y-106249468D01*
X125317144Y-106277230D01*
X125250822Y-106334750D01*
X125211561Y-106413272D01*
X125205338Y-106500842D01*
X125233100Y-106584128D01*
X125290620Y-106650450D01*
X125327948Y-106673947D01*
X125499376Y-106759661D01*
X125540570Y-106775425D01*
X125548634Y-106775998D01*
X125556104Y-106779092D01*
X125599999Y-106783415D01*
X125942856Y-106783415D01*
X125986751Y-106779092D01*
X125994220Y-106775998D01*
X126002284Y-106775425D01*
X126043479Y-106759661D01*
X126214907Y-106673947D01*
X126222244Y-106669328D01*
X126225713Y-106668172D01*
X126230031Y-106664426D01*
X126252235Y-106650450D01*
X126270720Y-106629136D01*
X126292034Y-106610651D01*
X126306011Y-106588445D01*
X126309756Y-106584129D01*
X126310911Y-106580662D01*
X126315531Y-106573324D01*
X126401245Y-106401895D01*
X126417009Y-106360701D01*
X126417582Y-106352636D01*
X126420676Y-106345167D01*
X126424999Y-106301272D01*
X126424999Y-106215558D01*
X126420676Y-106171663D01*
X126417582Y-106164193D01*
X126417009Y-106156129D01*
X126401245Y-106114935D01*
X126315531Y-105943506D01*
X126310911Y-105936167D01*
X126309756Y-105932701D01*
X126306011Y-105928384D01*
X126292034Y-105906179D01*
X126270720Y-105887693D01*
X126252235Y-105866380D01*
X126230031Y-105852403D01*
X126225713Y-105848658D01*
X126222244Y-105847501D01*
X126214907Y-105842883D01*
X126043479Y-105757169D01*
X126002284Y-105741405D01*
X125994220Y-105740831D01*
X125986751Y-105737738D01*
X125942856Y-105733415D01*
X125738828Y-105733415D01*
X125681990Y-105704996D01*
X125658699Y-105658415D01*
X125681990Y-105611833D01*
X125738828Y-105583415D01*
X125889741Y-105583415D01*
X126013662Y-105645375D01*
X126054856Y-105661139D01*
X126142426Y-105667362D01*
X126225713Y-105639600D01*
X126253433Y-105615558D01*
X126660714Y-105615558D01*
X126660714Y-106301272D01*
X126665037Y-106345167D01*
X126668130Y-106352636D01*
X126668704Y-106360700D01*
X126684468Y-106401895D01*
X126770182Y-106573323D01*
X126774800Y-106580660D01*
X126775957Y-106584129D01*
X126779702Y-106588447D01*
X126793679Y-106610651D01*
X126814992Y-106629136D01*
X126833478Y-106650450D01*
X126855683Y-106664427D01*
X126860000Y-106668172D01*
X126863466Y-106669327D01*
X126870805Y-106673947D01*
X127042234Y-106759661D01*
X127083428Y-106775425D01*
X127091492Y-106775998D01*
X127098962Y-106779092D01*
X127142857Y-106783415D01*
X127485714Y-106783415D01*
X127529609Y-106779092D01*
X127537078Y-106775998D01*
X127545143Y-106775425D01*
X127586337Y-106759661D01*
X127757765Y-106673947D01*
X127795092Y-106650450D01*
X127852613Y-106584128D01*
X127880375Y-106500842D01*
X127874152Y-106413272D01*
X127834891Y-106334751D01*
X127768569Y-106277230D01*
X127685283Y-106249468D01*
X127597713Y-106255691D01*
X127556519Y-106271455D01*
X127432599Y-106333415D01*
X127195971Y-106333415D01*
X127139133Y-106304996D01*
X127110714Y-106248157D01*
X127110714Y-106142871D01*
X127786983Y-106007617D01*
X127829178Y-105994769D01*
X127847494Y-105982502D01*
X127867860Y-105974067D01*
X127883612Y-105958314D01*
X127902122Y-105945919D01*
X127914350Y-105927577D01*
X127929938Y-105911989D01*
X127938463Y-105891406D01*
X127950820Y-105872872D01*
X127955097Y-105851247D01*
X127963534Y-105830881D01*
X127967857Y-105786986D01*
X127967857Y-105615558D01*
X127963534Y-105571663D01*
X127960440Y-105564193D01*
X127959867Y-105556129D01*
X127944103Y-105514935D01*
X127858388Y-105343505D01*
X127853767Y-105336164D01*
X127852613Y-105332702D01*
X127848873Y-105328390D01*
X127834891Y-105306178D01*
X127813573Y-105287689D01*
X127795092Y-105266380D01*
X127772887Y-105252402D01*
X127768569Y-105248657D01*
X127765101Y-105247501D01*
X127757765Y-105242883D01*
X127586337Y-105157169D01*
X127545143Y-105141405D01*
X127537078Y-105140831D01*
X127529609Y-105137738D01*
X127485714Y-105133415D01*
X127142857Y-105133415D01*
X127098962Y-105137738D01*
X127091492Y-105140831D01*
X127083428Y-105141405D01*
X127042234Y-105157169D01*
X126870805Y-105242883D01*
X126863466Y-105247502D01*
X126860000Y-105248658D01*
X126855683Y-105252402D01*
X126833478Y-105266380D01*
X126814992Y-105287693D01*
X126793679Y-105306179D01*
X126779702Y-105328382D01*
X126775957Y-105332701D01*
X126774800Y-105336169D01*
X126770182Y-105343507D01*
X126684468Y-105514935D01*
X126668704Y-105556130D01*
X126668130Y-105564193D01*
X126665037Y-105571663D01*
X126660714Y-105615558D01*
X126253433Y-105615558D01*
X126292034Y-105582079D01*
X126331295Y-105503557D01*
X126337518Y-105415987D01*
X126309756Y-105332701D01*
X126252235Y-105266380D01*
X126214907Y-105242883D01*
X126043479Y-105157169D01*
X126002284Y-105141405D01*
X125994220Y-105140831D01*
X125986751Y-105137738D01*
X125942856Y-105133415D01*
X125685714Y-105133415D01*
X125641819Y-105137738D01*
X125634349Y-105140831D01*
X125626285Y-105141405D01*
X125585091Y-105157169D01*
X125413662Y-105242883D01*
X125406323Y-105247502D01*
X125402857Y-105248658D01*
X125398540Y-105252402D01*
X125376335Y-105266380D01*
X125357849Y-105287693D01*
X125336536Y-105306179D01*
X125322559Y-105328382D01*
X125318814Y-105332701D01*
X125317657Y-105336169D01*
X125313039Y-105343507D01*
X125227325Y-105514935D01*
X125211561Y-105556130D01*
X125210987Y-105564193D01*
X125207894Y-105571663D01*
X125203571Y-105615558D01*
X124882142Y-105615558D01*
X124882142Y-105358415D01*
X124877819Y-105314520D01*
X124844223Y-105233412D01*
X124782145Y-105171334D01*
X124716466Y-105144129D01*
X124782146Y-105116924D01*
X124816241Y-105088942D01*
X124901955Y-105003228D01*
X124929937Y-104969133D01*
X124963533Y-104888025D01*
X124963533Y-104800233D01*
X124929937Y-104719125D01*
X124901955Y-104685030D01*
X124816241Y-104599316D01*
X124782146Y-104571334D01*
X124701038Y-104537738D01*
X124613246Y-104537738D01*
X124532138Y-104571334D01*
X124498043Y-104599316D01*
X124412329Y-104685030D01*
X124384347Y-104719125D01*
X124350751Y-104800233D01*
X120510714Y-104800233D01*
X120510714Y-104758415D01*
X120506391Y-104714520D01*
X120472795Y-104633412D01*
X120410717Y-104571334D01*
X120329609Y-104537738D01*
X120241819Y-104537738D01*
X120160711Y-104571334D01*
X120098633Y-104633412D01*
X120065037Y-104714520D01*
X120060714Y-104758415D01*
X116922885Y-104758415D01*
X116899168Y-104687264D01*
X116881186Y-104646988D01*
X116870653Y-104634843D01*
X116863463Y-104620463D01*
X116842145Y-104601974D01*
X116823665Y-104580667D01*
X116809289Y-104573479D01*
X116797141Y-104562943D01*
X116770370Y-104554019D01*
X116745142Y-104541405D01*
X116729109Y-104540265D01*
X116713856Y-104535181D01*
X116685709Y-104537181D01*
X116657572Y-104535182D01*
X116642321Y-104540265D01*
X116626286Y-104541405D01*
X116601053Y-104554020D01*
X116574287Y-104562943D01*
X116562141Y-104573476D01*
X116547763Y-104580666D01*
X116529276Y-104601981D01*
X116507966Y-104620464D01*
X116500777Y-104634840D01*
X116490242Y-104646988D01*
X116472260Y-104687263D01*
X115872260Y-106487264D01*
X115862481Y-106530273D01*
X115550001Y-106530273D01*
X115550001Y-104310181D01*
X128450000Y-104310181D01*
X128450000Y-109906314D01*
G37*
D11*
%TO.P,R6,1*%
%TO.N,GND*%
X113400000Y-86930062D03*
%TO.P,R6,2*%
%TO.N,Net-(U2B-+)*%
X115400000Y-86930062D03*
%TD*%
D12*
%TO.P,C2,1*%
%TO.N,Net-(U2A--)*%
X130339785Y-94868440D03*
%TO.P,C2,2*%
%TO.N,/1er_etage*%
X128264785Y-94868440D03*
%TD*%
%TO.P,C6,1*%
%TO.N,Net-(U2B--)*%
X115437500Y-88930062D03*
%TO.P,C6,2*%
%TO.N,/2eme_etage*%
X113362500Y-88930062D03*
%TD*%
D13*
%TO.P,C3,1*%
%TO.N,+10V*%
X128264785Y-84868440D03*
%TO.P,C3,2*%
%TO.N,GND*%
X130339785Y-84868440D03*
%TD*%
D14*
%TO.P,R8,1*%
%TO.N,Net-(U2B--)*%
X115400000Y-90930062D03*
%TO.P,R8,2*%
%TO.N,/2eme_etage*%
X113400000Y-90930062D03*
%TD*%
%TO.P,R3,1*%
%TO.N,Net-(U2A--)*%
X130302285Y-92868440D03*
%TO.P,R3,2*%
%TO.N,/1er_etage*%
X128302285Y-92868440D03*
%TD*%
D15*
%TO.P,PS1,1,-VIN*%
%TO.N,GND*%
X114050000Y-74810000D03*
D16*
%TO.P,PS1,7,NC*%
%TO.N,unconnected-(PS1-NC-Pad7)*%
X129290000Y-74810000D03*
%TO.P,PS1,8,+VOUT*%
%TO.N,+10V*%
X129290000Y-67190000D03*
%TO.P,PS1,10,-VOUT*%
%TO.N,GND*%
X124210000Y-67190000D03*
%TO.P,PS1,14,+VIN*%
%TO.N,+5V*%
X114050000Y-67190000D03*
%TD*%
D17*
%TO.P,U1,1,D*%
%TO.N,+10V*%
X124540000Y-81250000D03*
D18*
%TO.P,U1,2,S*%
%TO.N,Net-(U1-S)*%
X122000000Y-78710000D03*
%TO.P,U1,3,GND*%
%TO.N,GND*%
X119460000Y-81250000D03*
%TD*%
D11*
%TO.P,R7,1*%
%TO.N,Net-(U2B-+)*%
X113400000Y-84930062D03*
%TO.P,R7,2*%
%TO.N,+3.3V*%
X115400000Y-84930062D03*
%TD*%
D14*
%TO.P,R4,1*%
%TO.N,Net-(R4-Pad1)*%
X115400000Y-96930062D03*
%TO.P,R4,2*%
%TO.N,GND*%
X113400000Y-96930062D03*
%TD*%
D19*
%TO.P,J1,1,Pin_1*%
%TO.N,/1er_etage*%
X115000000Y-102775000D03*
D20*
%TO.P,J1,2,Pin_2*%
%TO.N,/2eme_etage*%
X115000000Y-100235000D03*
%TD*%
D13*
%TO.P,C5,1*%
%TO.N,Net-(C5-Pad1)*%
X113362500Y-92930062D03*
%TO.P,C5,2*%
%TO.N,Net-(U2B--)*%
X115437500Y-92930062D03*
%TD*%
%TO.P,C1,1*%
%TO.N,Net-(C1-Pad1)*%
X128264785Y-88868440D03*
%TO.P,C1,2*%
%TO.N,GND*%
X130339785Y-88868440D03*
%TD*%
D21*
%TO.P,RV1,1,1*%
%TO.N,/1er_etage*%
X124540000Y-101250000D03*
D22*
%TO.P,RV1,2,2*%
%TO.N,Net-(R5-Pad2)*%
X122000000Y-101250000D03*
%TO.P,RV1,3,3*%
%TO.N,Net-(R4-Pad1)*%
X119460000Y-101250000D03*
%TD*%
D23*
%TO.P,U2,1*%
%TO.N,/1er_etage*%
X124500000Y-92855000D03*
%TO.P,U2,2,-*%
%TO.N,Net-(U2A--)*%
X124500000Y-91585000D03*
%TO.P,U2,3,+*%
%TO.N,Net-(U1-S)*%
X124500000Y-90315000D03*
%TO.P,U2,4,V-*%
%TO.N,GND*%
X124500000Y-89045000D03*
%TO.P,U2,5,+*%
%TO.N,Net-(U2B-+)*%
X119550000Y-89045000D03*
%TO.P,U2,6,-*%
%TO.N,Net-(U2B--)*%
X119550000Y-90315000D03*
%TO.P,U2,7*%
%TO.N,/2eme_etage*%
X119550000Y-91585000D03*
%TO.P,U2,8,V+*%
%TO.N,+3.3V*%
X119550000Y-92855000D03*
%TD*%
D13*
%TO.P,C4,1*%
%TO.N,+3.3V*%
X128264785Y-96868440D03*
%TO.P,C4,2*%
%TO.N,GND*%
X130339785Y-96868440D03*
%TD*%
D11*
%TO.P,R1,1*%
%TO.N,Net-(U1-S)*%
X128302285Y-86868440D03*
%TO.P,R1,2*%
%TO.N,GND*%
X130302285Y-86868440D03*
%TD*%
%TO.P,R5,1*%
%TO.N,Net-(C5-Pad1)*%
X113400000Y-94930062D03*
%TO.P,R5,2*%
%TO.N,Net-(R5-Pad2)*%
X115400000Y-94930062D03*
%TD*%
%TO.P,R2,1*%
%TO.N,Net-(U2A--)*%
X128302285Y-90868440D03*
%TO.P,R2,2*%
%TO.N,Net-(C1-Pad1)*%
X130302285Y-90868440D03*
%TD*%
D24*
%TO.P,U3,1,3V3*%
%TO.N,+3.3V*%
X134700000Y-75425000D03*
D25*
%TO.P,U3,2,GND*%
%TO.N,GND*%
X134700000Y-77965000D03*
%TO.P,U3,3,D15*%
%TO.N,unconnected-(U3-D15-Pad3)*%
X134700000Y-80505000D03*
%TO.P,U3,4,D2*%
%TO.N,unconnected-(U3-D2-Pad4)*%
X134700000Y-83045000D03*
%TO.P,U3,5,D4*%
%TO.N,unconnected-(U3-D4-Pad5)*%
X134700000Y-85585000D03*
%TO.P,U3,6,RX2*%
%TO.N,unconnected-(U3-RX2-Pad6)*%
X134700000Y-88125000D03*
%TO.P,U3,7,TX2*%
%TO.N,unconnected-(U3-TX2-Pad7)*%
X134700000Y-90665000D03*
%TO.P,U3,8,D5*%
%TO.N,unconnected-(U3-D5-Pad8)*%
X134700000Y-93205000D03*
%TO.P,U3,9,D18*%
%TO.N,unconnected-(U3-D18-Pad9)*%
X134700000Y-95745000D03*
%TO.P,U3,10,D19*%
%TO.N,unconnected-(U3-D19-Pad10)*%
X134700000Y-98285000D03*
%TO.P,U3,11,D21*%
%TO.N,unconnected-(U3-D21-Pad11)*%
X134700000Y-100825000D03*
%TO.P,U3,12,RX0*%
%TO.N,unconnected-(U3-RX0-Pad12)*%
X134700000Y-103365000D03*
%TO.P,U3,13,TX0*%
%TO.N,unconnected-(U3-TX0-Pad13)*%
X134700000Y-105905000D03*
%TO.P,U3,14,D22*%
%TO.N,unconnected-(U3-D22-Pad14)*%
X134700000Y-108445000D03*
%TO.P,U3,15,D23*%
%TO.N,unconnected-(U3-D23-Pad15)*%
X134700000Y-110985000D03*
%TO.P,U3,16,EN*%
%TO.N,unconnected-(U3-EN-Pad16)*%
X109300000Y-110985000D03*
%TO.P,U3,17,VP*%
%TO.N,unconnected-(U3-VP-Pad17)*%
X109300000Y-108445000D03*
%TO.P,U3,18,VN*%
%TO.N,unconnected-(U3-VN-Pad18)*%
X109300000Y-105905000D03*
%TO.P,U3,19,D34*%
%TO.N,unconnected-(U3-D34-Pad19)*%
X109300000Y-103365000D03*
%TO.P,U3,20,D35*%
%TO.N,unconnected-(U3-D35-Pad20)*%
X109300000Y-100825000D03*
%TO.P,U3,21,D32*%
%TO.N,unconnected-(U3-D32-Pad21)*%
X109300000Y-98285000D03*
%TO.P,U3,22,D33*%
%TO.N,unconnected-(U3-D33-Pad22)*%
X109300000Y-95745000D03*
%TO.P,U3,23,D25*%
%TO.N,unconnected-(U3-D25-Pad23)*%
X109300000Y-93205000D03*
%TO.P,U3,24,D26*%
%TO.N,unconnected-(U3-D26-Pad24)*%
X109300000Y-90665000D03*
%TO.P,U3,25,D27*%
%TO.N,unconnected-(U3-D27-Pad25)*%
X109300000Y-88125000D03*
%TO.P,U3,26,D14*%
%TO.N,/2eme_etage*%
X109300000Y-85585000D03*
%TO.P,U3,27,D12*%
%TO.N,unconnected-(U3-D12-Pad27)*%
X109300000Y-83045000D03*
%TO.P,U3,28,D13*%
%TO.N,unconnected-(U3-D13-Pad28)*%
X109300000Y-80505000D03*
%TO.P,U3,29,GND*%
%TO.N,GND*%
X109300000Y-77965000D03*
%TO.P,U3,30,VIN*%
%TO.N,+5V*%
X109300000Y-75425000D03*
%TD*%
D26*
%TO.N,GND*%
X113300000Y-107100000D03*
X113300000Y-81300000D03*
X131000000Y-107100000D03*
X121920000Y-94460000D03*
X131000000Y-81200000D03*
%TO.N,+3.3V*%
X120976000Y-87176000D03*
X130826000Y-77326000D03*
%TO.N,/2eme_etage*%
X117300000Y-91600000D03*
X111500000Y-87800000D03*
%TO.N,+5V*%
X110962500Y-73762500D03*
%TO.N,Net-(U1-S)*%
X122000000Y-80566155D03*
%TD*%
D27*
%TO.N,Net-(C1-Pad1)*%
X128264785Y-88868440D02*
X128302285Y-88868440D01*
X128302285Y-88868440D02*
X130302285Y-90868440D01*
%TO.N,GND*%
X112349000Y-85879062D02*
X112349000Y-82251000D01*
X113400000Y-96930062D02*
X114969938Y-98500000D01*
X112349000Y-82251000D02*
X113300000Y-81300000D01*
X114969938Y-98500000D02*
X116500000Y-98500000D01*
X113400000Y-86930062D02*
X112349000Y-85879062D01*
%TO.N,/1er_etage*%
X128302285Y-92868440D02*
X128302285Y-94830940D01*
X127368440Y-92868440D02*
X128302285Y-92868440D01*
X124500000Y-92855000D02*
X127355000Y-92855000D01*
X129302285Y-95905940D02*
X129302285Y-97697715D01*
X129302285Y-97697715D02*
X125750000Y-101250000D01*
X128302285Y-94830940D02*
X128264785Y-94868440D01*
X128264785Y-94868440D02*
X129302285Y-95905940D01*
X125750000Y-101250000D02*
X124540000Y-101250000D01*
X127355000Y-92855000D02*
X127368440Y-92868440D01*
X123015000Y-102775000D02*
X115000000Y-102775000D01*
X124540000Y-101250000D02*
X123015000Y-102775000D01*
%TO.N,Net-(U2A--)*%
X130302285Y-92868440D02*
X128302285Y-90868440D01*
X128131560Y-90868440D02*
X128302285Y-90868440D01*
X124500000Y-91585000D02*
X127415000Y-91585000D01*
X130302285Y-92868440D02*
X130302285Y-94830940D01*
X127415000Y-91585000D02*
X128131560Y-90868440D01*
X130302285Y-94830940D02*
X130339785Y-94868440D01*
%TO.N,+10V*%
X128158440Y-84868440D02*
X124540000Y-81250000D01*
X128264785Y-84868440D02*
X128158440Y-84868440D01*
%TO.N,+3.3V*%
X121591364Y-99600000D02*
X125533225Y-99600000D01*
X120976000Y-87176000D02*
X117645938Y-87176000D01*
X119550000Y-92855000D02*
X118345000Y-92855000D01*
X130826000Y-77326000D02*
X132727000Y-75425000D01*
X117300000Y-93900000D02*
X117300000Y-95308636D01*
X117300000Y-95308636D02*
X121591364Y-99600000D01*
X120524999Y-92855000D02*
X119550000Y-92855000D01*
X125533225Y-99600000D02*
X128264785Y-96868440D01*
X117645938Y-87176000D02*
X115400000Y-84930062D01*
X132727000Y-75425000D02*
X134700000Y-75425000D01*
X120976000Y-92403999D02*
X120524999Y-92855000D01*
X118345000Y-92855000D02*
X117300000Y-93900000D01*
X120976000Y-87176000D02*
X120976000Y-92403999D01*
%TO.N,Net-(U2B--)*%
X119550000Y-90315000D02*
X116822438Y-90315000D01*
X116822438Y-90315000D02*
X115437500Y-88930062D01*
X115437500Y-92930062D02*
X115437500Y-88930062D01*
%TO.N,Net-(C5-Pad1)*%
X113400000Y-92967562D02*
X113362500Y-92930062D01*
X113400000Y-94930062D02*
X113400000Y-92967562D01*
%TO.N,/2eme_etage*%
X112300000Y-98800000D02*
X112300000Y-92030062D01*
X117835000Y-91585000D02*
X119550000Y-91585000D01*
X112300000Y-92030062D02*
X113400000Y-90930062D01*
X111500000Y-87800000D02*
X109300000Y-85600000D01*
X113400000Y-90930062D02*
X113400000Y-88967562D01*
X117300000Y-91600000D02*
X117820000Y-91600000D01*
X113292562Y-89000000D02*
X112700000Y-89000000D01*
X112700000Y-89000000D02*
X111500000Y-87800000D01*
X113400000Y-88967562D02*
X113362500Y-88930062D01*
X109300000Y-85600000D02*
X109300000Y-85585000D01*
X115000000Y-100235000D02*
X113735000Y-100235000D01*
X113735000Y-100235000D02*
X112300000Y-98800000D01*
X113362500Y-88930062D02*
X113292562Y-89000000D01*
X117820000Y-91600000D02*
X117835000Y-91585000D01*
%TO.N,+5V*%
X114050000Y-70675000D02*
X114050000Y-67190000D01*
X109300000Y-75425000D02*
X110962500Y-73762500D01*
X110962500Y-73762500D02*
X114050000Y-70675000D01*
%TO.N,Net-(U1-S)*%
X126500000Y-88500000D02*
X128131560Y-86868440D01*
X122000000Y-78710000D02*
X122000000Y-80566155D01*
X124500000Y-90315000D02*
X125474999Y-90315000D01*
X128131560Y-86868440D02*
X128302285Y-86868440D01*
X122000000Y-80566155D02*
X128302285Y-86868440D01*
X126500000Y-89289999D02*
X126500000Y-88500000D01*
X125474999Y-90315000D02*
X126500000Y-89289999D01*
%TO.N,Net-(R4-Pad1)*%
X117258636Y-97250000D02*
X115719938Y-97250000D01*
X115719938Y-97250000D02*
X115400000Y-96930062D01*
X119460000Y-99451364D02*
X117258636Y-97250000D01*
X119460000Y-101250000D02*
X119460000Y-99451364D01*
%TO.N,Net-(R5-Pad2)*%
X122000000Y-101000000D02*
X116250000Y-95250000D01*
X122000000Y-101250000D02*
X122000000Y-101000000D01*
X116250000Y-95250000D02*
X115719938Y-95250000D01*
X115719938Y-95250000D02*
X115400000Y-94930062D01*
%TO.N,Net-(U2B-+)*%
X119550000Y-89045000D02*
X117514938Y-89045000D01*
X113400000Y-84930062D02*
X115400000Y-86930062D01*
X117514938Y-89045000D02*
X115400000Y-86930062D01*
%TD*%
%TA.AperFunction,Conductor*%
%TO.N,GND*%
G36*
X123624576Y-65972174D02*
G01*
X123646250Y-66024500D01*
X123624576Y-66076826D01*
X123605845Y-66090434D01*
X123552765Y-66117479D01*
X123517010Y-66143456D01*
X123517010Y-66143457D01*
X124080590Y-66707037D01*
X124017007Y-66724075D01*
X123902993Y-66789901D01*
X123809901Y-66882993D01*
X123744075Y-66997007D01*
X123727037Y-67060590D01*
X123163457Y-66497010D01*
X123163456Y-66497010D01*
X123137479Y-66532765D01*
X123047871Y-66708630D01*
X123047869Y-66708636D01*
X122986879Y-66896343D01*
X122986876Y-66896356D01*
X122956000Y-67091307D01*
X122956000Y-67288692D01*
X122986876Y-67483643D01*
X122986879Y-67483656D01*
X123047869Y-67671363D01*
X123047869Y-67671364D01*
X123137484Y-67847240D01*
X123137484Y-67847241D01*
X123163456Y-67882988D01*
X123727037Y-67319407D01*
X123744075Y-67382993D01*
X123809901Y-67497007D01*
X123902993Y-67590099D01*
X124017007Y-67655925D01*
X124080590Y-67672962D01*
X123517010Y-68236542D01*
X123552762Y-68262517D01*
X123728635Y-68352130D01*
X123916343Y-68413120D01*
X123916356Y-68413123D01*
X124111307Y-68444000D01*
X124308693Y-68444000D01*
X124503643Y-68413123D01*
X124503656Y-68413120D01*
X124691363Y-68352130D01*
X124691364Y-68352130D01*
X124867242Y-68262515D01*
X124902988Y-68236542D01*
X124902989Y-68236542D01*
X124339409Y-67672962D01*
X124402993Y-67655925D01*
X124517007Y-67590099D01*
X124610099Y-67497007D01*
X124675925Y-67382993D01*
X124692962Y-67319409D01*
X125256542Y-67882989D01*
X125256542Y-67882988D01*
X125282515Y-67847242D01*
X125372130Y-67671364D01*
X125372130Y-67671363D01*
X125433120Y-67483656D01*
X125433123Y-67483643D01*
X125464000Y-67288692D01*
X125464000Y-67091308D01*
X125463999Y-67091305D01*
X125463961Y-67091066D01*
X128285500Y-67091066D01*
X128285500Y-67288933D01*
X128324101Y-67482996D01*
X128324104Y-67483006D01*
X128399821Y-67665804D01*
X128399823Y-67665807D01*
X128399824Y-67665809D01*
X128509754Y-67830331D01*
X128649669Y-67970246D01*
X128814191Y-68080176D01*
X128814196Y-68080178D01*
X128814195Y-68080178D01*
X128996993Y-68155895D01*
X128996998Y-68155897D01*
X129191065Y-68194500D01*
X129191067Y-68194500D01*
X129388933Y-68194500D01*
X129388935Y-68194500D01*
X129583002Y-68155897D01*
X129765809Y-68080176D01*
X129930331Y-67970246D01*
X130070246Y-67830331D01*
X130180176Y-67665809D01*
X130255897Y-67483002D01*
X130294500Y-67288935D01*
X130294500Y-67091065D01*
X130255897Y-66896998D01*
X130180176Y-66714191D01*
X130070246Y-66549669D01*
X129930331Y-66409754D01*
X129765809Y-66299824D01*
X129765805Y-66299822D01*
X129765803Y-66299821D01*
X129765804Y-66299821D01*
X129583006Y-66224104D01*
X129582996Y-66224101D01*
X129453038Y-66198251D01*
X129388935Y-66185500D01*
X129191065Y-66185500D01*
X129136048Y-66196443D01*
X128997003Y-66224101D01*
X128996993Y-66224104D01*
X128814195Y-66299821D01*
X128649669Y-66409753D01*
X128649668Y-66409755D01*
X128509755Y-66549668D01*
X128509753Y-66549669D01*
X128399821Y-66714195D01*
X128324104Y-66896993D01*
X128324101Y-66897003D01*
X128285500Y-67091066D01*
X125463961Y-67091066D01*
X125433123Y-66896356D01*
X125433120Y-66896343D01*
X125372130Y-66708636D01*
X125372130Y-66708635D01*
X125282517Y-66532762D01*
X125256541Y-66497010D01*
X124692962Y-67060590D01*
X124675925Y-66997007D01*
X124610099Y-66882993D01*
X124517007Y-66789901D01*
X124402993Y-66724075D01*
X124339407Y-66707037D01*
X124902988Y-66143456D01*
X124867241Y-66117484D01*
X124867235Y-66117481D01*
X124814153Y-66090434D01*
X124777370Y-66047367D01*
X124781814Y-65990905D01*
X124824881Y-65954122D01*
X124847748Y-65950500D01*
X133160228Y-65950500D01*
X133212554Y-65972174D01*
X133234228Y-66024500D01*
X133212554Y-66076826D01*
X133205282Y-66083202D01*
X133126760Y-66143456D01*
X133123334Y-66146085D01*
X132961085Y-66308334D01*
X132821388Y-66490388D01*
X132706655Y-66689112D01*
X132706654Y-66689114D01*
X132618841Y-66901115D01*
X132559451Y-67122761D01*
X132529500Y-67350267D01*
X132529500Y-67579732D01*
X132559451Y-67807238D01*
X132618841Y-68028884D01*
X132706654Y-68240885D01*
X132706655Y-68240887D01*
X132806096Y-68413123D01*
X132821389Y-68439612D01*
X132961081Y-68621661D01*
X133123339Y-68783919D01*
X133305388Y-68923611D01*
X133504112Y-69038344D01*
X133716113Y-69126158D01*
X133937762Y-69185548D01*
X133937761Y-69185548D01*
X134013596Y-69195532D01*
X134165266Y-69215500D01*
X134165268Y-69215500D01*
X134394732Y-69215500D01*
X134394734Y-69215500D01*
X134622238Y-69185548D01*
X134843887Y-69126158D01*
X135055888Y-69038344D01*
X135254612Y-68923611D01*
X135436661Y-68783919D01*
X135598919Y-68621661D01*
X135666793Y-68533206D01*
X135715841Y-68504889D01*
X135770549Y-68519548D01*
X135798867Y-68568597D01*
X135799500Y-68578256D01*
X135799500Y-74100500D01*
X135777826Y-74152826D01*
X135725500Y-74174500D01*
X135724674Y-74174500D01*
X133675326Y-74174500D01*
X133626615Y-74184189D01*
X133602259Y-74189034D01*
X133519399Y-74244398D01*
X133519398Y-74244399D01*
X133464034Y-74327259D01*
X133449500Y-74400327D01*
X133449500Y-74850500D01*
X133427826Y-74902826D01*
X133375500Y-74924500D01*
X132661106Y-74924500D01*
X132533818Y-74958606D01*
X132533809Y-74958610D01*
X132419685Y-75024500D01*
X131156964Y-76287220D01*
X131104638Y-76308894D01*
X131090202Y-76307472D01*
X130980357Y-76285623D01*
X130929465Y-76275500D01*
X130722535Y-76275500D01*
X130682385Y-76283486D01*
X130519586Y-76315868D01*
X130519579Y-76315870D01*
X130328401Y-76395059D01*
X130156345Y-76510022D01*
X130156344Y-76510024D01*
X130010024Y-76656344D01*
X130010022Y-76656345D01*
X129895059Y-76828401D01*
X129815870Y-77019579D01*
X129815868Y-77019586D01*
X129775500Y-77222535D01*
X129775500Y-77429464D01*
X129815868Y-77632413D01*
X129815870Y-77632420D01*
X129895059Y-77823598D01*
X130010023Y-77995655D01*
X130156345Y-78141977D01*
X130328402Y-78256941D01*
X130519580Y-78336130D01*
X130722535Y-78376500D01*
X130722536Y-78376500D01*
X130929464Y-78376500D01*
X130929465Y-78376500D01*
X131132420Y-78336130D01*
X131323598Y-78256941D01*
X131495655Y-78141977D01*
X131641977Y-77995655D01*
X131756941Y-77823598D01*
X131836130Y-77632420D01*
X131876500Y-77429465D01*
X131876500Y-77222535D01*
X131844526Y-77061795D01*
X131855575Y-77006248D01*
X131864773Y-76995039D01*
X132912640Y-75947174D01*
X132964966Y-75925500D01*
X133375500Y-75925500D01*
X133427826Y-75947174D01*
X133449500Y-75999500D01*
X133449500Y-76449674D01*
X133458442Y-76494627D01*
X133464034Y-76522740D01*
X133514313Y-76597990D01*
X133519399Y-76605601D01*
X133602260Y-76660966D01*
X133675326Y-76675500D01*
X133675328Y-76675500D01*
X133756100Y-76675500D01*
X133808426Y-76697174D01*
X133824476Y-76735923D01*
X134562424Y-77473871D01*
X134503147Y-77489755D01*
X134386853Y-77556898D01*
X134291898Y-77651853D01*
X134224755Y-77768147D01*
X134208871Y-77827424D01*
X133477340Y-77095893D01*
X133477339Y-77095893D01*
X133417084Y-77178828D01*
X133309892Y-77389207D01*
X133236937Y-77613738D01*
X133236934Y-77613751D01*
X133200000Y-77846946D01*
X133200000Y-78083053D01*
X133236934Y-78316248D01*
X133236937Y-78316261D01*
X133309892Y-78540792D01*
X133417082Y-78751166D01*
X133477340Y-78834105D01*
X134208871Y-78102574D01*
X134224755Y-78161853D01*
X134291898Y-78278147D01*
X134386853Y-78373102D01*
X134503147Y-78440245D01*
X134562423Y-78456127D01*
X133830893Y-79187658D01*
X133913833Y-79247917D01*
X134034836Y-79309570D01*
X134071619Y-79352637D01*
X134067176Y-79409100D01*
X134044738Y-79435372D01*
X133885352Y-79551173D01*
X133885349Y-79551177D01*
X133746168Y-79690358D01*
X133630475Y-79849595D01*
X133541113Y-80024980D01*
X133480293Y-80212163D01*
X133480290Y-80212176D01*
X133449500Y-80406582D01*
X133449500Y-80603417D01*
X133480290Y-80797823D01*
X133480293Y-80797836D01*
X133541113Y-80985019D01*
X133630475Y-81160404D01*
X133730483Y-81298053D01*
X133746172Y-81319646D01*
X133885354Y-81458828D01*
X134044595Y-81574524D01*
X134219975Y-81663884D01*
X134219977Y-81663884D01*
X134219980Y-81663886D01*
X134345351Y-81704622D01*
X134388419Y-81741405D01*
X134392862Y-81797867D01*
X134356079Y-81840935D01*
X134345351Y-81845378D01*
X134219980Y-81886113D01*
X134044595Y-81975475D01*
X133885358Y-82091168D01*
X133746168Y-82230358D01*
X133630475Y-82389595D01*
X133541113Y-82564980D01*
X133480293Y-82752163D01*
X133480290Y-82752176D01*
X133449500Y-82946582D01*
X133449500Y-83143417D01*
X133480290Y-83337823D01*
X133480293Y-83337836D01*
X133541113Y-83525019D01*
X133630475Y-83700404D01*
X133712865Y-83813804D01*
X133746172Y-83859646D01*
X133885354Y-83998828D01*
X134044595Y-84114524D01*
X134219975Y-84203884D01*
X134219977Y-84203884D01*
X134219980Y-84203886D01*
X134345351Y-84244622D01*
X134388419Y-84281405D01*
X134392862Y-84337867D01*
X134356079Y-84380935D01*
X134345351Y-84385378D01*
X134219980Y-84426113D01*
X134044595Y-84515475D01*
X133885358Y-84631168D01*
X133746168Y-84770358D01*
X133630475Y-84929595D01*
X133541113Y-85104980D01*
X133480293Y-85292163D01*
X133480290Y-85292176D01*
X133449500Y-85486582D01*
X133449500Y-85683417D01*
X133480290Y-85877823D01*
X133480293Y-85877836D01*
X133541113Y-86065019D01*
X133630475Y-86240404D01*
X133717384Y-86360024D01*
X133746172Y-86399646D01*
X133885354Y-86538828D01*
X134044595Y-86654524D01*
X134219975Y-86743884D01*
X134219977Y-86743884D01*
X134219980Y-86743886D01*
X134345351Y-86784622D01*
X134388419Y-86821405D01*
X134392862Y-86877867D01*
X134356079Y-86920935D01*
X134345351Y-86925378D01*
X134219980Y-86966113D01*
X134044595Y-87055475D01*
X133885358Y-87171168D01*
X133746168Y-87310358D01*
X133630475Y-87469595D01*
X133541113Y-87644980D01*
X133480293Y-87832163D01*
X133480290Y-87832176D01*
X133449500Y-88026582D01*
X133449500Y-88223417D01*
X133480290Y-88417823D01*
X133480293Y-88417836D01*
X133541113Y-88605019D01*
X133630475Y-88780404D01*
X133712865Y-88893804D01*
X133746172Y-88939646D01*
X133885354Y-89078828D01*
X134044595Y-89194524D01*
X134219975Y-89283884D01*
X134219977Y-89283884D01*
X134219980Y-89283886D01*
X134345351Y-89324622D01*
X134388419Y-89361405D01*
X134392862Y-89417867D01*
X134356079Y-89460935D01*
X134345351Y-89465378D01*
X134219980Y-89506113D01*
X134044595Y-89595475D01*
X133885358Y-89711168D01*
X133746168Y-89850358D01*
X133630475Y-90009595D01*
X133541113Y-90184980D01*
X133480293Y-90372163D01*
X133480290Y-90372176D01*
X133449500Y-90566582D01*
X133449500Y-90763417D01*
X133480290Y-90957823D01*
X133480293Y-90957836D01*
X133541113Y-91145019D01*
X133630475Y-91320404D01*
X133712865Y-91433804D01*
X133746172Y-91479646D01*
X133885354Y-91618828D01*
X134044595Y-91734524D01*
X134219975Y-91823884D01*
X134219977Y-91823884D01*
X134219980Y-91823886D01*
X134345351Y-91864622D01*
X134388419Y-91901405D01*
X134392862Y-91957867D01*
X134356079Y-92000935D01*
X134345351Y-92005378D01*
X134219980Y-92046113D01*
X134044595Y-92135475D01*
X133885358Y-92251168D01*
X133746168Y-92390358D01*
X133630475Y-92549595D01*
X133541113Y-92724980D01*
X133480293Y-92912163D01*
X133480290Y-92912176D01*
X133449500Y-93106582D01*
X133449500Y-93303417D01*
X133480290Y-93497823D01*
X133480293Y-93497836D01*
X133541113Y-93685019D01*
X133630475Y-93860404D01*
X133734049Y-94002961D01*
X133746172Y-94019646D01*
X133885354Y-94158828D01*
X134044595Y-94274524D01*
X134219975Y-94363884D01*
X134219977Y-94363884D01*
X134219980Y-94363886D01*
X134345351Y-94404622D01*
X134388419Y-94441405D01*
X134392862Y-94497867D01*
X134356079Y-94540935D01*
X134345351Y-94545378D01*
X134219980Y-94586113D01*
X134044595Y-94675475D01*
X133885358Y-94791168D01*
X133746168Y-94930358D01*
X133630475Y-95089595D01*
X133541113Y-95264980D01*
X133480293Y-95452163D01*
X133480290Y-95452176D01*
X133449500Y-95646582D01*
X133449500Y-95843417D01*
X133480290Y-96037823D01*
X133480293Y-96037836D01*
X133541113Y-96225019D01*
X133541115Y-96225024D01*
X133541116Y-96225025D01*
X133549125Y-96240743D01*
X133630475Y-96400404D01*
X133712865Y-96513804D01*
X133746172Y-96559646D01*
X133885354Y-96698828D01*
X134044595Y-96814524D01*
X134219975Y-96903884D01*
X134219977Y-96903884D01*
X134219980Y-96903886D01*
X134345351Y-96944622D01*
X134388419Y-96981405D01*
X134392862Y-97037867D01*
X134356079Y-97080935D01*
X134345351Y-97085378D01*
X134219980Y-97126113D01*
X134044595Y-97215475D01*
X133885358Y-97331168D01*
X133746168Y-97470358D01*
X133630475Y-97629595D01*
X133541113Y-97804980D01*
X133480293Y-97992163D01*
X133480290Y-97992176D01*
X133449500Y-98186582D01*
X133449500Y-98383417D01*
X133480290Y-98577823D01*
X133480293Y-98577836D01*
X133541113Y-98765019D01*
X133630475Y-98940404D01*
X133730318Y-99077826D01*
X133746172Y-99099646D01*
X133885354Y-99238828D01*
X134044595Y-99354524D01*
X134219975Y-99443884D01*
X134219977Y-99443884D01*
X134219980Y-99443886D01*
X134345351Y-99484622D01*
X134388419Y-99521405D01*
X134392862Y-99577867D01*
X134356079Y-99620935D01*
X134345351Y-99625378D01*
X134219980Y-99666113D01*
X134044595Y-99755475D01*
X133885358Y-99871168D01*
X133746168Y-100010358D01*
X133630475Y-100169595D01*
X133541113Y-100344980D01*
X133480293Y-100532163D01*
X133480290Y-100532176D01*
X133449500Y-100726582D01*
X133449500Y-100923417D01*
X133480290Y-101117823D01*
X133480293Y-101117836D01*
X133541113Y-101305019D01*
X133630475Y-101480404D01*
X133712865Y-101593804D01*
X133746172Y-101639646D01*
X133885354Y-101778828D01*
X133885357Y-101778830D01*
X133885358Y-101778831D01*
X134044595Y-101894524D01*
X134219975Y-101983884D01*
X134219977Y-101983884D01*
X134219980Y-101983886D01*
X134345351Y-102024622D01*
X134388419Y-102061405D01*
X134392862Y-102117867D01*
X134356079Y-102160935D01*
X134345351Y-102165378D01*
X134219980Y-102206113D01*
X134044595Y-102295475D01*
X133885358Y-102411168D01*
X133746168Y-102550358D01*
X133630475Y-102709595D01*
X133541113Y-102884980D01*
X133480293Y-103072163D01*
X133480290Y-103072176D01*
X133449500Y-103266582D01*
X133449500Y-103463417D01*
X133480290Y-103657823D01*
X133480293Y-103657836D01*
X133541113Y-103845019D01*
X133630475Y-104020404D01*
X133712865Y-104133804D01*
X133746172Y-104179646D01*
X133885354Y-104318828D01*
X134044595Y-104434524D01*
X134219975Y-104523884D01*
X134219977Y-104523884D01*
X134219980Y-104523886D01*
X134345351Y-104564622D01*
X134388419Y-104601405D01*
X134392862Y-104657867D01*
X134356079Y-104700935D01*
X134345351Y-104705378D01*
X134219980Y-104746113D01*
X134044595Y-104835475D01*
X133885358Y-104951168D01*
X133746168Y-105090358D01*
X133630475Y-105249595D01*
X133541113Y-105424980D01*
X133480293Y-105612163D01*
X133480290Y-105612176D01*
X133449500Y-105806582D01*
X133449500Y-106003417D01*
X133480290Y-106197823D01*
X133480293Y-106197836D01*
X133541113Y-106385019D01*
X133630475Y-106560404D01*
X133712865Y-106673804D01*
X133746172Y-106719646D01*
X133885354Y-106858828D01*
X134044595Y-106974524D01*
X134219975Y-107063884D01*
X134219977Y-107063884D01*
X134219980Y-107063886D01*
X134345351Y-107104622D01*
X134388419Y-107141405D01*
X134392862Y-107197867D01*
X134356079Y-107240935D01*
X134345351Y-107245378D01*
X134219980Y-107286113D01*
X134044595Y-107375475D01*
X133885358Y-107491168D01*
X133746168Y-107630358D01*
X133630475Y-107789595D01*
X133541113Y-107964980D01*
X133480293Y-108152163D01*
X133480290Y-108152176D01*
X133449500Y-108346582D01*
X133449500Y-108543417D01*
X133480290Y-108737823D01*
X133480293Y-108737836D01*
X133541113Y-108925019D01*
X133630475Y-109100404D01*
X133712865Y-109213804D01*
X133746172Y-109259646D01*
X133885354Y-109398828D01*
X134044595Y-109514524D01*
X134219975Y-109603884D01*
X134219977Y-109603884D01*
X134219980Y-109603886D01*
X134282995Y-109624360D01*
X134345351Y-109644621D01*
X134388418Y-109681403D01*
X134392862Y-109737866D01*
X134356080Y-109780933D01*
X134345352Y-109785377D01*
X134219976Y-109826115D01*
X134219974Y-109826115D01*
X134188930Y-109841934D01*
X134155335Y-109850000D01*
X109844665Y-109850000D01*
X109811070Y-109841934D01*
X109780024Y-109826115D01*
X109654647Y-109785377D01*
X109611580Y-109748594D01*
X109607137Y-109692131D01*
X109609890Y-109688908D01*
X115767407Y-109688908D01*
X128232594Y-109688908D01*
X128232594Y-104525821D01*
X115767407Y-104525821D01*
X115767407Y-109688908D01*
X109609890Y-109688908D01*
X109643920Y-109649064D01*
X109654640Y-109644624D01*
X109780025Y-109603884D01*
X109955405Y-109514524D01*
X110114646Y-109398828D01*
X110253828Y-109259646D01*
X110369524Y-109100405D01*
X110458884Y-108925025D01*
X110519709Y-108737826D01*
X110550500Y-108543417D01*
X110550500Y-108346583D01*
X110519709Y-108152174D01*
X110519707Y-108152169D01*
X110519706Y-108152163D01*
X110458886Y-107964980D01*
X110458884Y-107964977D01*
X110458884Y-107964975D01*
X110369524Y-107789595D01*
X110253828Y-107630354D01*
X110114646Y-107491172D01*
X110114643Y-107491169D01*
X110114641Y-107491168D01*
X109955404Y-107375475D01*
X109780019Y-107286113D01*
X109654648Y-107245378D01*
X109611580Y-107208595D01*
X109607137Y-107152133D01*
X109643920Y-107109065D01*
X109654648Y-107104622D01*
X109780019Y-107063886D01*
X109780019Y-107063885D01*
X109780025Y-107063884D01*
X109955405Y-106974524D01*
X110114646Y-106858828D01*
X110253828Y-106719646D01*
X110369524Y-106560405D01*
X110458884Y-106385025D01*
X110519709Y-106197826D01*
X110550500Y-106003417D01*
X110550500Y-105806583D01*
X110519709Y-105612174D01*
X110519707Y-105612169D01*
X110519706Y-105612163D01*
X110458886Y-105424980D01*
X110458884Y-105424977D01*
X110458884Y-105424975D01*
X110369524Y-105249595D01*
X110253828Y-105090354D01*
X110114646Y-104951172D01*
X110114643Y-104951169D01*
X110114641Y-104951168D01*
X109955404Y-104835475D01*
X109780019Y-104746113D01*
X109654648Y-104705378D01*
X109611580Y-104668595D01*
X109607137Y-104612133D01*
X109643920Y-104569065D01*
X109654648Y-104564622D01*
X109780019Y-104523886D01*
X109780019Y-104523885D01*
X109780025Y-104523884D01*
X109955405Y-104434524D01*
X110114646Y-104318828D01*
X110253828Y-104179646D01*
X110369524Y-104020405D01*
X110458884Y-103845025D01*
X110519709Y-103657826D01*
X110550500Y-103463417D01*
X110550500Y-103266583D01*
X110519709Y-103072174D01*
X110519707Y-103072169D01*
X110519706Y-103072163D01*
X110458886Y-102884980D01*
X110458884Y-102884977D01*
X110458884Y-102884975D01*
X110369524Y-102709595D01*
X110253828Y-102550354D01*
X110114646Y-102411172D01*
X110114643Y-102411169D01*
X110114641Y-102411168D01*
X109955404Y-102295475D01*
X109780019Y-102206113D01*
X109654648Y-102165378D01*
X109611580Y-102128595D01*
X109607137Y-102072133D01*
X109643920Y-102029065D01*
X109654648Y-102024622D01*
X109780019Y-101983886D01*
X109780019Y-101983885D01*
X109780025Y-101983884D01*
X109955405Y-101894524D01*
X110114646Y-101778828D01*
X110253828Y-101639646D01*
X110369524Y-101480405D01*
X110458884Y-101305025D01*
X110475179Y-101254874D01*
X110519706Y-101117836D01*
X110519706Y-101117833D01*
X110519709Y-101117826D01*
X110550500Y-100923417D01*
X110550500Y-100726583D01*
X110519709Y-100532174D01*
X110519707Y-100532169D01*
X110519706Y-100532163D01*
X110458886Y-100344980D01*
X110458884Y-100344977D01*
X110458884Y-100344975D01*
X110369524Y-100169595D01*
X110253828Y-100010354D01*
X110114646Y-99871172D01*
X110114643Y-99871169D01*
X110114641Y-99871168D01*
X109955404Y-99755475D01*
X109780019Y-99666113D01*
X109654648Y-99625378D01*
X109611580Y-99588595D01*
X109607137Y-99532133D01*
X109643920Y-99489065D01*
X109654648Y-99484622D01*
X109780019Y-99443886D01*
X109780019Y-99443885D01*
X109780025Y-99443884D01*
X109955405Y-99354524D01*
X110114646Y-99238828D01*
X110253828Y-99099646D01*
X110369524Y-98940405D01*
X110458884Y-98765025D01*
X110468930Y-98734108D01*
X110519706Y-98577836D01*
X110519706Y-98577833D01*
X110519709Y-98577826D01*
X110550500Y-98383417D01*
X110550500Y-98186583D01*
X110519709Y-97992174D01*
X110519707Y-97992169D01*
X110519706Y-97992163D01*
X110458886Y-97804980D01*
X110458884Y-97804977D01*
X110458884Y-97804975D01*
X110369524Y-97629595D01*
X110253828Y-97470354D01*
X110114646Y-97331172D01*
X110114643Y-97331169D01*
X110114641Y-97331168D01*
X109955404Y-97215475D01*
X109780019Y-97126113D01*
X109654648Y-97085378D01*
X109611580Y-97048595D01*
X109607137Y-96992133D01*
X109643920Y-96949065D01*
X109654648Y-96944622D01*
X109780019Y-96903886D01*
X109780019Y-96903885D01*
X109780025Y-96903884D01*
X109955405Y-96814524D01*
X110114646Y-96698828D01*
X110253828Y-96559646D01*
X110369524Y-96400405D01*
X110458884Y-96225025D01*
X110482901Y-96151109D01*
X110519706Y-96037836D01*
X110519706Y-96037833D01*
X110519709Y-96037826D01*
X110550500Y-95843417D01*
X110550500Y-95646583D01*
X110546668Y-95622391D01*
X110519709Y-95452176D01*
X110519706Y-95452163D01*
X110458886Y-95264980D01*
X110458884Y-95264977D01*
X110458884Y-95264975D01*
X110369524Y-95089595D01*
X110281160Y-94967973D01*
X110253831Y-94930358D01*
X110253830Y-94930357D01*
X110253828Y-94930354D01*
X110114646Y-94791172D01*
X110114643Y-94791169D01*
X110114641Y-94791168D01*
X109955404Y-94675475D01*
X109780019Y-94586113D01*
X109654648Y-94545378D01*
X109611580Y-94508595D01*
X109607137Y-94452133D01*
X109643920Y-94409065D01*
X109654648Y-94404622D01*
X109780019Y-94363886D01*
X109780019Y-94363885D01*
X109780025Y-94363884D01*
X109955405Y-94274524D01*
X110114646Y-94158828D01*
X110253828Y-94019646D01*
X110369524Y-93860405D01*
X110458884Y-93685025D01*
X110461821Y-93675985D01*
X110519706Y-93497836D01*
X110519706Y-93497833D01*
X110519709Y-93497826D01*
X110550500Y-93303417D01*
X110550500Y-93106583D01*
X110519709Y-92912174D01*
X110519707Y-92912169D01*
X110519706Y-92912163D01*
X110458886Y-92724980D01*
X110458884Y-92724977D01*
X110458884Y-92724975D01*
X110369524Y-92549595D01*
X110253828Y-92390354D01*
X110114646Y-92251172D01*
X110114643Y-92251169D01*
X110114641Y-92251168D01*
X109955404Y-92135475D01*
X109780019Y-92046113D01*
X109654648Y-92005378D01*
X109611580Y-91968595D01*
X109607137Y-91912133D01*
X109643920Y-91869065D01*
X109654648Y-91864622D01*
X109780019Y-91823886D01*
X109780019Y-91823885D01*
X109780025Y-91823884D01*
X109955405Y-91734524D01*
X110114646Y-91618828D01*
X110253828Y-91479646D01*
X110369524Y-91320405D01*
X110458884Y-91145025D01*
X110478550Y-91084500D01*
X110519706Y-90957836D01*
X110519706Y-90957833D01*
X110519709Y-90957826D01*
X110550500Y-90763417D01*
X110550500Y-90566583D01*
X110519709Y-90372174D01*
X110519707Y-90372169D01*
X110519706Y-90372163D01*
X110458886Y-90184980D01*
X110458884Y-90184977D01*
X110458884Y-90184975D01*
X110369524Y-90009595D01*
X110298226Y-89911462D01*
X110253831Y-89850358D01*
X110253830Y-89850357D01*
X110253828Y-89850354D01*
X110114646Y-89711172D01*
X110114643Y-89711169D01*
X110114641Y-89711168D01*
X109955404Y-89595475D01*
X109780019Y-89506113D01*
X109654648Y-89465378D01*
X109611580Y-89428595D01*
X109607137Y-89372133D01*
X109643920Y-89329065D01*
X109654648Y-89324622D01*
X109780019Y-89283886D01*
X109780019Y-89283885D01*
X109780025Y-89283884D01*
X109955405Y-89194524D01*
X110114646Y-89078828D01*
X110253828Y-88939646D01*
X110369524Y-88780405D01*
X110458884Y-88605025D01*
X110495139Y-88493444D01*
X110514993Y-88432341D01*
X110551776Y-88389273D01*
X110608238Y-88384830D01*
X110646899Y-88414095D01*
X110684023Y-88469655D01*
X110830345Y-88615977D01*
X111002402Y-88730941D01*
X111193580Y-88810130D01*
X111396535Y-88850500D01*
X111396536Y-88850500D01*
X111603463Y-88850500D01*
X111603465Y-88850500D01*
X111764204Y-88818526D01*
X111819751Y-88829575D01*
X111830965Y-88838778D01*
X112296911Y-89304724D01*
X112296916Y-89304730D01*
X112299500Y-89307314D01*
X112392686Y-89400500D01*
X112480021Y-89450923D01*
X112494654Y-89459371D01*
X112529134Y-89504303D01*
X112529832Y-89508044D01*
X112529845Y-89508042D01*
X112530909Y-89512547D01*
X112581202Y-89647391D01*
X112581203Y-89647392D01*
X112581204Y-89647393D01*
X112667454Y-89762608D01*
X112782669Y-89848858D01*
X112851360Y-89874478D01*
X112863058Y-89885369D01*
X112877826Y-89891486D01*
X112882971Y-89903908D01*
X112892812Y-89913070D01*
X112899500Y-89943812D01*
X112899500Y-89950635D01*
X112877826Y-90002961D01*
X112851361Y-90019969D01*
X112807669Y-90036265D01*
X112692454Y-90122516D01*
X112606203Y-90237731D01*
X112606202Y-90237732D01*
X112555910Y-90372574D01*
X112555909Y-90372579D01*
X112549500Y-90432188D01*
X112549500Y-91042095D01*
X112527826Y-91094421D01*
X111992686Y-91629562D01*
X111899500Y-91722747D01*
X111833610Y-91836871D01*
X111833606Y-91836880D01*
X111799500Y-91964167D01*
X111799500Y-98865894D01*
X111833606Y-98993181D01*
X111833607Y-98993184D01*
X111833608Y-98993186D01*
X111899500Y-99107314D01*
X113334500Y-100542314D01*
X113427686Y-100635500D01*
X113455191Y-100651380D01*
X113523672Y-100690918D01*
X113541814Y-100701392D01*
X113541815Y-100701392D01*
X113541817Y-100701393D01*
X113594970Y-100715635D01*
X113669104Y-100735499D01*
X113669105Y-100735500D01*
X113669107Y-100735500D01*
X113669108Y-100735500D01*
X113974550Y-100735500D01*
X114026876Y-100757174D01*
X114040485Y-100775905D01*
X114058767Y-100811788D01*
X114077200Y-100837158D01*
X114160586Y-100951928D01*
X114283072Y-101074414D01*
X114283075Y-101074416D01*
X114283076Y-101074417D01*
X114423212Y-101176232D01*
X114577553Y-101254872D01*
X114577557Y-101254874D01*
X114742288Y-101308399D01*
X114742294Y-101308400D01*
X114742299Y-101308402D01*
X114856359Y-101326467D01*
X114913388Y-101335500D01*
X114913389Y-101335500D01*
X115086612Y-101335500D01*
X115129383Y-101328725D01*
X115257701Y-101308402D01*
X115257708Y-101308399D01*
X115257711Y-101308399D01*
X115422442Y-101254874D01*
X115422442Y-101254873D01*
X115422445Y-101254873D01*
X115576788Y-101176232D01*
X115716928Y-101074414D01*
X115839414Y-100951928D01*
X115941232Y-100811788D01*
X116019873Y-100657445D01*
X116027004Y-100635499D01*
X116073399Y-100492711D01*
X116073399Y-100492708D01*
X116073402Y-100492701D01*
X116100500Y-100321611D01*
X116100500Y-100148389D01*
X116099493Y-100142034D01*
X116078637Y-100010352D01*
X116073402Y-99977299D01*
X116073400Y-99977294D01*
X116073399Y-99977288D01*
X116019874Y-99812557D01*
X116019872Y-99812553D01*
X115941232Y-99658212D01*
X115839417Y-99518076D01*
X115839416Y-99518075D01*
X115839414Y-99518072D01*
X115716928Y-99395586D01*
X115716925Y-99395583D01*
X115716923Y-99395582D01*
X115576787Y-99293767D01*
X115422446Y-99215127D01*
X115422442Y-99215125D01*
X115257711Y-99161600D01*
X115257698Y-99161597D01*
X115086612Y-99134500D01*
X115086611Y-99134500D01*
X114913389Y-99134500D01*
X114913388Y-99134500D01*
X114742301Y-99161597D01*
X114742288Y-99161600D01*
X114577557Y-99215125D01*
X114577553Y-99215127D01*
X114423212Y-99293767D01*
X114283076Y-99395582D01*
X114160582Y-99518076D01*
X114058767Y-99658211D01*
X114040485Y-99694095D01*
X114031431Y-99701827D01*
X114026876Y-99712826D01*
X114010717Y-99719518D01*
X113997418Y-99730878D01*
X113974550Y-99734500D01*
X113972966Y-99734500D01*
X113920640Y-99712826D01*
X112822174Y-98614360D01*
X112800500Y-98562034D01*
X112800500Y-98189968D01*
X112822174Y-98137642D01*
X112874500Y-98115968D01*
X112893286Y-98119002D01*
X112893347Y-98118721D01*
X112897302Y-98119567D01*
X113000025Y-98130061D01*
X113150000Y-98130061D01*
X113150000Y-97004062D01*
X113171674Y-96951736D01*
X113224000Y-96930062D01*
X113576000Y-96930062D01*
X113628326Y-96951736D01*
X113650000Y-97004062D01*
X113650000Y-98130061D01*
X113799971Y-98130061D01*
X113799976Y-98130060D01*
X113902696Y-98119567D01*
X114069121Y-98064419D01*
X114218343Y-97972378D01*
X114218347Y-97972376D01*
X114342314Y-97848409D01*
X114342316Y-97848405D01*
X114434358Y-97699182D01*
X114462559Y-97614076D01*
X114499591Y-97571223D01*
X114556079Y-97567108D01*
X114598932Y-97604140D01*
X114602137Y-97611490D01*
X114606204Y-97622393D01*
X114692454Y-97737608D01*
X114791539Y-97811783D01*
X114807669Y-97823858D01*
X114807670Y-97823859D01*
X114918605Y-97865234D01*
X114942517Y-97874153D01*
X115002127Y-97880562D01*
X115797872Y-97880561D01*
X115857483Y-97874153D01*
X115938491Y-97843939D01*
X115992329Y-97823859D01*
X115992329Y-97823858D01*
X115992331Y-97823858D01*
X116070608Y-97765259D01*
X116114955Y-97750500D01*
X117020670Y-97750500D01*
X117072996Y-97772174D01*
X118937826Y-99637004D01*
X118959500Y-99689330D01*
X118959500Y-100252608D01*
X118937826Y-100304934D01*
X118919097Y-100318542D01*
X118896310Y-100330152D01*
X118759363Y-100429650D01*
X118639650Y-100549363D01*
X118540149Y-100686314D01*
X118463291Y-100837158D01*
X118410984Y-100998142D01*
X118410981Y-100998155D01*
X118384500Y-101165355D01*
X118384500Y-101334644D01*
X118410981Y-101501844D01*
X118410984Y-101501857D01*
X118463291Y-101662841D01*
X118463294Y-101662848D01*
X118463295Y-101662849D01*
X118468733Y-101673523D01*
X118540149Y-101813685D01*
X118629454Y-101936602D01*
X118639654Y-101950641D01*
X118759359Y-102070346D01*
X118759362Y-102070348D01*
X118759363Y-102070349D01*
X118856101Y-102140633D01*
X118885694Y-102188924D01*
X118872472Y-102243996D01*
X118824181Y-102273589D01*
X118812605Y-102274500D01*
X116174500Y-102274500D01*
X116122174Y-102252826D01*
X116100500Y-102200500D01*
X116100500Y-101900327D01*
X116099346Y-101894524D01*
X116085966Y-101827260D01*
X116030601Y-101744399D01*
X115988686Y-101716393D01*
X115947740Y-101689034D01*
X115874674Y-101674500D01*
X114125326Y-101674500D01*
X114076615Y-101684189D01*
X114052259Y-101689034D01*
X113969399Y-101744398D01*
X113969398Y-101744399D01*
X113914034Y-101827259D01*
X113914034Y-101827260D01*
X113899500Y-101900326D01*
X113899500Y-103649674D01*
X113914034Y-103722740D01*
X113969399Y-103805601D01*
X114052260Y-103860966D01*
X114125326Y-103875500D01*
X114125328Y-103875500D01*
X115874672Y-103875500D01*
X115874674Y-103875500D01*
X115947740Y-103860966D01*
X116030601Y-103805601D01*
X116085966Y-103722740D01*
X116100500Y-103649674D01*
X116100500Y-103349500D01*
X116122174Y-103297174D01*
X116174500Y-103275500D01*
X123080894Y-103275500D01*
X123080894Y-103275499D01*
X123208186Y-103241392D01*
X123322314Y-103175500D01*
X124150640Y-102347172D01*
X124202966Y-102325499D01*
X125006086Y-102325499D01*
X125006090Y-102325499D01*
X125072887Y-102319430D01*
X125226602Y-102271531D01*
X125364388Y-102188236D01*
X125478236Y-102074388D01*
X125561531Y-101936602D01*
X125603323Y-101802482D01*
X125639582Y-101758977D01*
X125673972Y-101750500D01*
X125815894Y-101750500D01*
X125815894Y-101750499D01*
X125943186Y-101716392D01*
X126057314Y-101650500D01*
X129648526Y-98059287D01*
X129700849Y-98037615D01*
X129724126Y-98041371D01*
X129849587Y-98082945D01*
X129952310Y-98093439D01*
X130089785Y-98093439D01*
X130589785Y-98093439D01*
X130727256Y-98093439D01*
X130727261Y-98093438D01*
X130829981Y-98082945D01*
X130996406Y-98027797D01*
X131145628Y-97935756D01*
X131145632Y-97935754D01*
X131269599Y-97811787D01*
X131269601Y-97811783D01*
X131361642Y-97662561D01*
X131416790Y-97496137D01*
X131427284Y-97393415D01*
X131427285Y-97393413D01*
X131427285Y-97118440D01*
X130589785Y-97118440D01*
X130589785Y-98093439D01*
X130089785Y-98093439D01*
X130089785Y-96942440D01*
X130111459Y-96890114D01*
X130163785Y-96868440D01*
X130339785Y-96868440D01*
X130339785Y-96692440D01*
X130361459Y-96640114D01*
X130413785Y-96618440D01*
X131427284Y-96618440D01*
X131427284Y-96343469D01*
X131427283Y-96343463D01*
X131416790Y-96240743D01*
X131361642Y-96074318D01*
X131269601Y-95925096D01*
X131269599Y-95925093D01*
X131145628Y-95801122D01*
X131087464Y-95765246D01*
X131054307Y-95719328D01*
X131063329Y-95663415D01*
X131067063Y-95657929D01*
X131121081Y-95585771D01*
X131171376Y-95450923D01*
X131177785Y-95391313D01*
X131177784Y-94345568D01*
X131171376Y-94285957D01*
X131167112Y-94274524D01*
X131121082Y-94151110D01*
X131121081Y-94151109D01*
X131088296Y-94107314D01*
X131034831Y-94035894D01*
X130920940Y-93950635D01*
X130919615Y-93949643D01*
X130919616Y-93949643D01*
X130850924Y-93924022D01*
X130839226Y-93913130D01*
X130824459Y-93907014D01*
X130819313Y-93894590D01*
X130809472Y-93885428D01*
X130802785Y-93854688D01*
X130802785Y-93847866D01*
X130824459Y-93795540D01*
X130850923Y-93778531D01*
X130894616Y-93762236D01*
X131009831Y-93675986D01*
X131096081Y-93560771D01*
X131146376Y-93425923D01*
X131152785Y-93366313D01*
X131152784Y-92370568D01*
X131146376Y-92310957D01*
X131145040Y-92307374D01*
X131096082Y-92176110D01*
X131096081Y-92176109D01*
X131083647Y-92159500D01*
X131009831Y-92060894D01*
X130923438Y-91996220D01*
X130894615Y-91974643D01*
X130894614Y-91974642D01*
X130795763Y-91937774D01*
X130754310Y-91899181D01*
X130752289Y-91842580D01*
X130790882Y-91801127D01*
X130795763Y-91799106D01*
X130894614Y-91762237D01*
X130894614Y-91762236D01*
X130894616Y-91762236D01*
X131009831Y-91675986D01*
X131096081Y-91560771D01*
X131146376Y-91425923D01*
X131152785Y-91366313D01*
X131152784Y-90370568D01*
X131146376Y-90310957D01*
X131119065Y-90237732D01*
X131096082Y-90176110D01*
X131096081Y-90176109D01*
X131037166Y-90097409D01*
X131023159Y-90042531D01*
X131052059Y-89993822D01*
X131057558Y-89990079D01*
X131145628Y-89935756D01*
X131145632Y-89935754D01*
X131269599Y-89811787D01*
X131269601Y-89811783D01*
X131361642Y-89662561D01*
X131416790Y-89496137D01*
X131427284Y-89393415D01*
X131427285Y-89393413D01*
X131427285Y-89118440D01*
X129290751Y-89118440D01*
X129238425Y-89096766D01*
X129124458Y-88982799D01*
X129102784Y-88930473D01*
X129102784Y-88345566D01*
X129098618Y-88306814D01*
X129096376Y-88285957D01*
X129080976Y-88244667D01*
X129046082Y-88151110D01*
X129046081Y-88151109D01*
X129041175Y-88144555D01*
X128959831Y-88035894D01*
X128844616Y-87949644D01*
X128844615Y-87949643D01*
X128844614Y-87949642D01*
X128804277Y-87934598D01*
X128762824Y-87896005D01*
X128760803Y-87839404D01*
X128799396Y-87797951D01*
X128804247Y-87795941D01*
X128894616Y-87762236D01*
X129009831Y-87675986D01*
X129096081Y-87560771D01*
X129100146Y-87549870D01*
X129138739Y-87508418D01*
X129195340Y-87506395D01*
X129236793Y-87544988D01*
X129239725Y-87552453D01*
X129267927Y-87637561D01*
X129359968Y-87786783D01*
X129359971Y-87786787D01*
X129402397Y-87829213D01*
X129424071Y-87881539D01*
X129410564Y-87920400D01*
X129412231Y-87921428D01*
X129317927Y-88074318D01*
X129262779Y-88240742D01*
X129252285Y-88343464D01*
X129252285Y-88618440D01*
X130089785Y-88618440D01*
X130089785Y-88148440D01*
X130073959Y-88132614D01*
X130052285Y-88080288D01*
X130052285Y-87563440D01*
X130552285Y-87563440D01*
X130568111Y-87579266D01*
X130589785Y-87631592D01*
X130589785Y-88618440D01*
X131427284Y-88618440D01*
X131427284Y-88343469D01*
X131427283Y-88343463D01*
X131416790Y-88240743D01*
X131361642Y-88074318D01*
X131269601Y-87925096D01*
X131269599Y-87925093D01*
X131240272Y-87895766D01*
X131218598Y-87843440D01*
X131240272Y-87791114D01*
X131244599Y-87786787D01*
X131244601Y-87786783D01*
X131336642Y-87637561D01*
X131391790Y-87471137D01*
X131402284Y-87368415D01*
X131402285Y-87368413D01*
X131402285Y-87118440D01*
X130552285Y-87118440D01*
X130552285Y-87563440D01*
X130052285Y-87563440D01*
X130052285Y-86173440D01*
X130552285Y-86173440D01*
X130552285Y-86618440D01*
X131402284Y-86618440D01*
X131402284Y-86368469D01*
X131402283Y-86368463D01*
X131391790Y-86265743D01*
X131336642Y-86099318D01*
X131244601Y-85950096D01*
X131244599Y-85950093D01*
X131240272Y-85945766D01*
X131218598Y-85893440D01*
X131240272Y-85841114D01*
X131269599Y-85811787D01*
X131269601Y-85811783D01*
X131361642Y-85662561D01*
X131416790Y-85496137D01*
X131427284Y-85393415D01*
X131427285Y-85393413D01*
X131427285Y-85118440D01*
X130589785Y-85118440D01*
X130589785Y-86105288D01*
X130568111Y-86157614D01*
X130552285Y-86173440D01*
X130052285Y-86173440D01*
X130052285Y-85656592D01*
X130073959Y-85604266D01*
X130089785Y-85588440D01*
X130089785Y-85118440D01*
X129252286Y-85118440D01*
X129252286Y-85393416D01*
X129262779Y-85496136D01*
X129317927Y-85662561D01*
X129412231Y-85815452D01*
X129410173Y-85816721D01*
X129423574Y-85863902D01*
X129402397Y-85907665D01*
X129359975Y-85950087D01*
X129359968Y-85950096D01*
X129267927Y-86099318D01*
X129239725Y-86184426D01*
X129202692Y-86227278D01*
X129146204Y-86231393D01*
X129103352Y-86194360D01*
X129100147Y-86187009D01*
X129096082Y-86176110D01*
X129096081Y-86176109D01*
X129088416Y-86165870D01*
X129009831Y-86060894D01*
X128894616Y-85974644D01*
X128894615Y-85974643D01*
X128894614Y-85974642D01*
X128804277Y-85940949D01*
X128762824Y-85902356D01*
X128760803Y-85845755D01*
X128799396Y-85804302D01*
X128804251Y-85802290D01*
X128844616Y-85787236D01*
X128959831Y-85700986D01*
X129046081Y-85585771D01*
X129096376Y-85450923D01*
X129102785Y-85391313D01*
X129102784Y-84345568D01*
X129102558Y-84343464D01*
X129252285Y-84343464D01*
X129252285Y-84618440D01*
X130089785Y-84618440D01*
X130589785Y-84618440D01*
X131427284Y-84618440D01*
X131427284Y-84343469D01*
X131427283Y-84343463D01*
X131416790Y-84240743D01*
X131361642Y-84074318D01*
X131269601Y-83925096D01*
X131269599Y-83925093D01*
X131145632Y-83801126D01*
X131145628Y-83801123D01*
X130996406Y-83709082D01*
X130829982Y-83653934D01*
X130727260Y-83643440D01*
X130589785Y-83643440D01*
X130589785Y-84618440D01*
X130089785Y-84618440D01*
X130089785Y-83643440D01*
X129952314Y-83643440D01*
X129952308Y-83643441D01*
X129849588Y-83653934D01*
X129683163Y-83709082D01*
X129533941Y-83801123D01*
X129409968Y-83925096D01*
X129317927Y-84074318D01*
X129262779Y-84240742D01*
X129252285Y-84343464D01*
X129102558Y-84343464D01*
X129096376Y-84285957D01*
X129080959Y-84244622D01*
X129046082Y-84151110D01*
X129046081Y-84151109D01*
X128988595Y-84074318D01*
X128959831Y-84035894D01*
X128844616Y-83949644D01*
X128844615Y-83949643D01*
X128844614Y-83949642D01*
X128709772Y-83899350D01*
X128709769Y-83899349D01*
X128709768Y-83899349D01*
X128679963Y-83896144D01*
X128650159Y-83892940D01*
X128650158Y-83892940D01*
X127921406Y-83892940D01*
X127869080Y-83871266D01*
X125377174Y-81379360D01*
X125355500Y-81327034D01*
X125355500Y-80660327D01*
X125355500Y-80660326D01*
X125340966Y-80587260D01*
X125285601Y-80504399D01*
X125202740Y-80449034D01*
X125129674Y-80434500D01*
X123950326Y-80434500D01*
X123901615Y-80444189D01*
X123877259Y-80449034D01*
X123794399Y-80504398D01*
X123794398Y-80504399D01*
X123739034Y-80587259D01*
X123724500Y-80660327D01*
X123724500Y-81404189D01*
X123702826Y-81456515D01*
X123650500Y-81478189D01*
X123598174Y-81456515D01*
X123038778Y-80897119D01*
X123017104Y-80844793D01*
X123018525Y-80830365D01*
X123050500Y-80669620D01*
X123050500Y-80462690D01*
X123010130Y-80259735D01*
X122930941Y-80068557D01*
X122815977Y-79896500D01*
X122669655Y-79750178D01*
X122669654Y-79750177D01*
X122533388Y-79659127D01*
X122501922Y-79612035D01*
X122500500Y-79597598D01*
X122500500Y-79393442D01*
X122522173Y-79341117D01*
X122633440Y-79229851D01*
X122722687Y-79096284D01*
X122784161Y-78947873D01*
X122815500Y-78790320D01*
X122815500Y-78629680D01*
X122784161Y-78472127D01*
X122722687Y-78323716D01*
X122633440Y-78190149D01*
X122519851Y-78076560D01*
X122453377Y-78032143D01*
X122386283Y-77987312D01*
X122237873Y-77925839D01*
X122237866Y-77925837D01*
X122119173Y-77902228D01*
X122080320Y-77894500D01*
X121919680Y-77894500D01*
X121888512Y-77900699D01*
X121762133Y-77925837D01*
X121762126Y-77925839D01*
X121613716Y-77987312D01*
X121480152Y-78076557D01*
X121366557Y-78190152D01*
X121277312Y-78323716D01*
X121215839Y-78472126D01*
X121215837Y-78472133D01*
X121184500Y-78629680D01*
X121184500Y-78790319D01*
X121215837Y-78947866D01*
X121215839Y-78947873D01*
X121277312Y-79096283D01*
X121366557Y-79229847D01*
X121366560Y-79229851D01*
X121477826Y-79341117D01*
X121499500Y-79393442D01*
X121499500Y-79597598D01*
X121477826Y-79649924D01*
X121466612Y-79659127D01*
X121330345Y-79750177D01*
X121330344Y-79750179D01*
X121184024Y-79896499D01*
X121184022Y-79896500D01*
X121069059Y-80068556D01*
X120989870Y-80259734D01*
X120989868Y-80259741D01*
X120949500Y-80462690D01*
X120949500Y-80669619D01*
X120989868Y-80872568D01*
X120989870Y-80872575D01*
X121069059Y-81063753D01*
X121161396Y-81201947D01*
X121184023Y-81235810D01*
X121330345Y-81382132D01*
X121502402Y-81497096D01*
X121693580Y-81576285D01*
X121896535Y-81616655D01*
X121896536Y-81616655D01*
X122103463Y-81616655D01*
X122103465Y-81616655D01*
X122264203Y-81584681D01*
X122319750Y-81595730D01*
X122330964Y-81604933D01*
X127430111Y-86704080D01*
X127451785Y-86756406D01*
X127451785Y-86809748D01*
X127430111Y-86862074D01*
X126099500Y-88192685D01*
X126033610Y-88306809D01*
X126033606Y-88306818D01*
X125999500Y-88434105D01*
X125999500Y-88488108D01*
X125977826Y-88540434D01*
X125925500Y-88562108D01*
X125873174Y-88540434D01*
X125861806Y-88525778D01*
X125842683Y-88493444D01*
X125726556Y-88377317D01*
X125585199Y-88293718D01*
X125427491Y-88247900D01*
X125427494Y-88247900D01*
X125390641Y-88245000D01*
X124750000Y-88245000D01*
X124750000Y-88971000D01*
X124728326Y-89023326D01*
X124676000Y-89045000D01*
X124500000Y-89045000D01*
X124500000Y-89221000D01*
X124478326Y-89273326D01*
X124426000Y-89295000D01*
X123027704Y-89295000D01*
X123027900Y-89297493D01*
X123073718Y-89455199D01*
X123157317Y-89596556D01*
X123273443Y-89712682D01*
X123371975Y-89770954D01*
X123405981Y-89816246D01*
X123398001Y-89872318D01*
X123386632Y-89886974D01*
X123346952Y-89926654D01*
X123289353Y-90039698D01*
X123274500Y-90133480D01*
X123274500Y-90496519D01*
X123289353Y-90590304D01*
X123289354Y-90590306D01*
X123309339Y-90629527D01*
X123346950Y-90703342D01*
X123436658Y-90793050D01*
X123549696Y-90850646D01*
X123643481Y-90865500D01*
X125356518Y-90865499D01*
X125356519Y-90865499D01*
X125403411Y-90858072D01*
X125450304Y-90850646D01*
X125503454Y-90823565D01*
X125520890Y-90822192D01*
X125537049Y-90815500D01*
X125540893Y-90815500D01*
X125540893Y-90815499D01*
X125668185Y-90781392D01*
X125782313Y-90715500D01*
X126807311Y-89690500D01*
X126807314Y-89690499D01*
X126900500Y-89597313D01*
X126966392Y-89483185D01*
X126974498Y-89452934D01*
X127000500Y-89355892D01*
X127000500Y-89224107D01*
X127000500Y-88737964D01*
X127022173Y-88685639D01*
X127300459Y-88407352D01*
X127352785Y-88385679D01*
X127405111Y-88407353D01*
X127426785Y-88459679D01*
X127426785Y-89391313D01*
X127433194Y-89450922D01*
X127433194Y-89450923D01*
X127483487Y-89585769D01*
X127483488Y-89585770D01*
X127492129Y-89597313D01*
X127569739Y-89700986D01*
X127654583Y-89764500D01*
X127684954Y-89787236D01*
X127684955Y-89787237D01*
X127762792Y-89816268D01*
X127804245Y-89854861D01*
X127806266Y-89911462D01*
X127767673Y-89952915D01*
X127762792Y-89954936D01*
X127709955Y-89974642D01*
X127709954Y-89974643D01*
X127594739Y-90060894D01*
X127508488Y-90176109D01*
X127508487Y-90176110D01*
X127458195Y-90310952D01*
X127458194Y-90310957D01*
X127451785Y-90370566D01*
X127451785Y-90809748D01*
X127430111Y-90862074D01*
X127229360Y-91062826D01*
X127177034Y-91084500D01*
X125537049Y-91084500D01*
X125503454Y-91076435D01*
X125450304Y-91049354D01*
X125356519Y-91034500D01*
X123643480Y-91034500D01*
X123549695Y-91049353D01*
X123549693Y-91049354D01*
X123436657Y-91106950D01*
X123346951Y-91196656D01*
X123289353Y-91309698D01*
X123274500Y-91403480D01*
X123274500Y-91766519D01*
X123289353Y-91860304D01*
X123289354Y-91860306D01*
X123325017Y-91930297D01*
X123346950Y-91973342D01*
X123436658Y-92063050D01*
X123549696Y-92120646D01*
X123643481Y-92135500D01*
X125356518Y-92135499D01*
X125356519Y-92135499D01*
X125403411Y-92128072D01*
X125450304Y-92120646D01*
X125486346Y-92102281D01*
X125503454Y-92093565D01*
X125520890Y-92092192D01*
X125537049Y-92085500D01*
X127435704Y-92085500D01*
X127488030Y-92107174D01*
X127509704Y-92159500D01*
X127505038Y-92185360D01*
X127459908Y-92306360D01*
X127421315Y-92347813D01*
X127390574Y-92354500D01*
X125537049Y-92354500D01*
X125503454Y-92346435D01*
X125450304Y-92319354D01*
X125356519Y-92304500D01*
X123643480Y-92304500D01*
X123549695Y-92319353D01*
X123549693Y-92319354D01*
X123436657Y-92376950D01*
X123346951Y-92466656D01*
X123289353Y-92579698D01*
X123274500Y-92673480D01*
X123274500Y-93036519D01*
X123289353Y-93130304D01*
X123289354Y-93130306D01*
X123346950Y-93243342D01*
X123436658Y-93333050D01*
X123549696Y-93390646D01*
X123643481Y-93405500D01*
X125356518Y-93405499D01*
X125356519Y-93405499D01*
X125418265Y-93395720D01*
X125450304Y-93390646D01*
X125492273Y-93369262D01*
X125503454Y-93363565D01*
X125537049Y-93355500D01*
X127242645Y-93355500D01*
X127249544Y-93355822D01*
X127255764Y-93356404D01*
X127302548Y-93368940D01*
X127389638Y-93368940D01*
X127393077Y-93369262D01*
X127415293Y-93380999D01*
X127438504Y-93390614D01*
X127440598Y-93394369D01*
X127443154Y-93395720D01*
X127445388Y-93402960D01*
X127455911Y-93421832D01*
X127456576Y-93421585D01*
X127508487Y-93560769D01*
X127508488Y-93560770D01*
X127508489Y-93560771D01*
X127594739Y-93675986D01*
X127709954Y-93762236D01*
X127753645Y-93778531D01*
X127765343Y-93789423D01*
X127780111Y-93795540D01*
X127785256Y-93807963D01*
X127795097Y-93817125D01*
X127801785Y-93847866D01*
X127801785Y-93854688D01*
X127780111Y-93907014D01*
X127753646Y-93924022D01*
X127684954Y-93949643D01*
X127569739Y-94035894D01*
X127483488Y-94151109D01*
X127483487Y-94151110D01*
X127433195Y-94285952D01*
X127433194Y-94285957D01*
X127426785Y-94345566D01*
X127426785Y-95391313D01*
X127433194Y-95450925D01*
X127483487Y-95585769D01*
X127483488Y-95585770D01*
X127483489Y-95585771D01*
X127569739Y-95700986D01*
X127663124Y-95770894D01*
X127684954Y-95787236D01*
X127684955Y-95787237D01*
X127716777Y-95799106D01*
X127758230Y-95837699D01*
X127760251Y-95894300D01*
X127721658Y-95935753D01*
X127716777Y-95937774D01*
X127684955Y-95949642D01*
X127684954Y-95949643D01*
X127569739Y-96035894D01*
X127483488Y-96151109D01*
X127483487Y-96151110D01*
X127433195Y-96285952D01*
X127433194Y-96285957D01*
X127426785Y-96345566D01*
X127426785Y-96967974D01*
X127405111Y-97020300D01*
X125347585Y-99077826D01*
X125295259Y-99099500D01*
X121829330Y-99099500D01*
X121777004Y-99077826D01*
X117822174Y-95122996D01*
X117800500Y-95070670D01*
X117800500Y-94137965D01*
X117822173Y-94085640D01*
X118507008Y-93400804D01*
X118559333Y-93379131D01*
X118592927Y-93387197D01*
X118599696Y-93390646D01*
X118693481Y-93405500D01*
X120406518Y-93405499D01*
X120406519Y-93405499D01*
X120468265Y-93395720D01*
X120500304Y-93390646D01*
X120542273Y-93369262D01*
X120553454Y-93363565D01*
X120587049Y-93355500D01*
X120590893Y-93355500D01*
X120590893Y-93355499D01*
X120718185Y-93321392D01*
X120832313Y-93255500D01*
X121376500Y-92711313D01*
X121442392Y-92597185D01*
X121476499Y-92469893D01*
X121476500Y-92469893D01*
X121476500Y-88795000D01*
X123027704Y-88795000D01*
X124250000Y-88795000D01*
X124250000Y-88245000D01*
X123609359Y-88245000D01*
X123572506Y-88247900D01*
X123414800Y-88293718D01*
X123273443Y-88377317D01*
X123157317Y-88493443D01*
X123073718Y-88634800D01*
X123027900Y-88792506D01*
X123027704Y-88795000D01*
X121476500Y-88795000D01*
X121476500Y-88144555D01*
X121498174Y-88092229D01*
X121509388Y-88083026D01*
X121572296Y-88040993D01*
X121645655Y-87991977D01*
X121791977Y-87845655D01*
X121906941Y-87673598D01*
X121986130Y-87482420D01*
X122026500Y-87279465D01*
X122026500Y-87072535D01*
X121986130Y-86869580D01*
X121906941Y-86678402D01*
X121791977Y-86506345D01*
X121645655Y-86360023D01*
X121507879Y-86267965D01*
X121473598Y-86245059D01*
X121282420Y-86165870D01*
X121282413Y-86165868D01*
X121129516Y-86135455D01*
X121079465Y-86125500D01*
X120872535Y-86125500D01*
X120832385Y-86133486D01*
X120669586Y-86165868D01*
X120669579Y-86165870D01*
X120478401Y-86245059D01*
X120306345Y-86360022D01*
X120306344Y-86360024D01*
X120160024Y-86506344D01*
X120160022Y-86506345D01*
X120068973Y-86642612D01*
X120021881Y-86674078D01*
X120007444Y-86675500D01*
X117883904Y-86675500D01*
X117831578Y-86653826D01*
X116272173Y-85094421D01*
X116250499Y-85042095D01*
X116250499Y-84432188D01*
X116248955Y-84417828D01*
X116244091Y-84372579D01*
X116233232Y-84343464D01*
X116193797Y-84237732D01*
X116193796Y-84237731D01*
X116107546Y-84122516D01*
X115992331Y-84036266D01*
X115992330Y-84036265D01*
X115992329Y-84036264D01*
X115857487Y-83985972D01*
X115857484Y-83985971D01*
X115857483Y-83985971D01*
X115797873Y-83979562D01*
X115002126Y-83979562D01*
X114942514Y-83985971D01*
X114807670Y-84036264D01*
X114807669Y-84036265D01*
X114692454Y-84122516D01*
X114606203Y-84237731D01*
X114606202Y-84237732D01*
X114555910Y-84372574D01*
X114555909Y-84372579D01*
X114549500Y-84432188D01*
X114549500Y-85193096D01*
X114527826Y-85245422D01*
X114475500Y-85267096D01*
X114423174Y-85245422D01*
X114272173Y-85094421D01*
X114250499Y-85042095D01*
X114250499Y-84432188D01*
X114248955Y-84417828D01*
X114244091Y-84372579D01*
X114233232Y-84343464D01*
X114193797Y-84237732D01*
X114193796Y-84237731D01*
X114107546Y-84122516D01*
X113992331Y-84036266D01*
X113992330Y-84036265D01*
X113992329Y-84036264D01*
X113857487Y-83985972D01*
X113857484Y-83985971D01*
X113857483Y-83985971D01*
X113797873Y-83979562D01*
X113002126Y-83979562D01*
X112942514Y-83985971D01*
X112807670Y-84036264D01*
X112807669Y-84036265D01*
X112692454Y-84122516D01*
X112606203Y-84237731D01*
X112606202Y-84237732D01*
X112555910Y-84372574D01*
X112555909Y-84372579D01*
X112549500Y-84432188D01*
X112549500Y-85427935D01*
X112555909Y-85487547D01*
X112606202Y-85622391D01*
X112606203Y-85622392D01*
X112606204Y-85622393D01*
X112685819Y-85728745D01*
X112699826Y-85783622D01*
X112670926Y-85832331D01*
X112665428Y-85836073D01*
X112581658Y-85887743D01*
X112457683Y-86011718D01*
X112365642Y-86160940D01*
X112310494Y-86327364D01*
X112300000Y-86430086D01*
X112300000Y-86680062D01*
X113326000Y-86680062D01*
X113378326Y-86701736D01*
X113400000Y-86754062D01*
X113400000Y-87106062D01*
X113378326Y-87158388D01*
X113326000Y-87180062D01*
X112388751Y-87180062D01*
X112336425Y-87158388D01*
X112327223Y-87147175D01*
X112315981Y-87130350D01*
X112315978Y-87130347D01*
X112315977Y-87130345D01*
X112169655Y-86984023D01*
X112142855Y-86966116D01*
X111997598Y-86869059D01*
X111806420Y-86789870D01*
X111806413Y-86789868D01*
X111629421Y-86754663D01*
X111603465Y-86749500D01*
X111396535Y-86749500D01*
X111235796Y-86781472D01*
X111180247Y-86770422D01*
X111169034Y-86761220D01*
X110494371Y-86086557D01*
X110472697Y-86034231D01*
X110476318Y-86011366D01*
X110519709Y-85877826D01*
X110550500Y-85683417D01*
X110550500Y-85486583D01*
X110519709Y-85292174D01*
X110519707Y-85292169D01*
X110519706Y-85292163D01*
X110458886Y-85104980D01*
X110458884Y-85104977D01*
X110458884Y-85104975D01*
X110369524Y-84929595D01*
X110253828Y-84770354D01*
X110114646Y-84631172D01*
X110114643Y-84631169D01*
X110114641Y-84631168D01*
X109955404Y-84515475D01*
X109780019Y-84426113D01*
X109654648Y-84385378D01*
X109611580Y-84348595D01*
X109607137Y-84292133D01*
X109643920Y-84249065D01*
X109654648Y-84244622D01*
X109780019Y-84203886D01*
X109780019Y-84203885D01*
X109780025Y-84203884D01*
X109955405Y-84114524D01*
X110114646Y-83998828D01*
X110253828Y-83859646D01*
X110369524Y-83700405D01*
X110458884Y-83525025D01*
X110519709Y-83337826D01*
X110550500Y-83143417D01*
X110550500Y-82946583D01*
X110519709Y-82752174D01*
X110519707Y-82752169D01*
X110519706Y-82752163D01*
X110458886Y-82564980D01*
X110458884Y-82564977D01*
X110458884Y-82564975D01*
X110369524Y-82389595D01*
X110285593Y-82274074D01*
X110253831Y-82230358D01*
X110253830Y-82230357D01*
X110253828Y-82230354D01*
X110114646Y-82091172D01*
X110114643Y-82091169D01*
X110114641Y-82091168D01*
X109955404Y-81975475D01*
X109780019Y-81886113D01*
X109654648Y-81845378D01*
X109611580Y-81808595D01*
X109607137Y-81752133D01*
X109643920Y-81709065D01*
X109654648Y-81704622D01*
X109780019Y-81663886D01*
X109780019Y-81663885D01*
X109780025Y-81663884D01*
X109955405Y-81574524D01*
X110114646Y-81458828D01*
X110253828Y-81319646D01*
X110369524Y-81160405D01*
X110377319Y-81145107D01*
X118395000Y-81145107D01*
X118395000Y-81354892D01*
X118435925Y-81560642D01*
X118435928Y-81560653D01*
X118516206Y-81754462D01*
X118550564Y-81805881D01*
X119095000Y-81261445D01*
X119095000Y-81298053D01*
X119119874Y-81390885D01*
X119167927Y-81474116D01*
X119235884Y-81542073D01*
X119319115Y-81590126D01*
X119411947Y-81615000D01*
X119448553Y-81615000D01*
X118904117Y-82159434D01*
X118904117Y-82159435D01*
X118955534Y-82193791D01*
X119149346Y-82274071D01*
X119149357Y-82274074D01*
X119355108Y-82315000D01*
X119564892Y-82315000D01*
X119770642Y-82274074D01*
X119770653Y-82274071D01*
X119964464Y-82193792D01*
X120015881Y-82159434D01*
X119471447Y-81615000D01*
X119508053Y-81615000D01*
X119600885Y-81590126D01*
X119684116Y-81542073D01*
X119752073Y-81474116D01*
X119800126Y-81390885D01*
X119825000Y-81298053D01*
X119825000Y-81261447D01*
X120369434Y-81805881D01*
X120403792Y-81754464D01*
X120484071Y-81560653D01*
X120484074Y-81560642D01*
X120525000Y-81354892D01*
X120525000Y-81145107D01*
X120484074Y-80939357D01*
X120484071Y-80939346D01*
X120403791Y-80745534D01*
X120369434Y-80694117D01*
X119825000Y-81238551D01*
X119825000Y-81201947D01*
X119800126Y-81109115D01*
X119752073Y-81025884D01*
X119684116Y-80957927D01*
X119600885Y-80909874D01*
X119508053Y-80885000D01*
X119471445Y-80885000D01*
X120015881Y-80340564D01*
X119964462Y-80306206D01*
X119770653Y-80225928D01*
X119770642Y-80225925D01*
X119564892Y-80185000D01*
X119355108Y-80185000D01*
X119149357Y-80225925D01*
X119149346Y-80225928D01*
X118955537Y-80306206D01*
X118904117Y-80340564D01*
X119448553Y-80885000D01*
X119411947Y-80885000D01*
X119319115Y-80909874D01*
X119235884Y-80957927D01*
X119167927Y-81025884D01*
X119119874Y-81109115D01*
X119095000Y-81201947D01*
X119095000Y-81238553D01*
X118550564Y-80694117D01*
X118516206Y-80745537D01*
X118435928Y-80939346D01*
X118435925Y-80939357D01*
X118395000Y-81145107D01*
X110377319Y-81145107D01*
X110458884Y-80985025D01*
X110491384Y-80885000D01*
X110519706Y-80797836D01*
X110519706Y-80797833D01*
X110519709Y-80797826D01*
X110550500Y-80603417D01*
X110550500Y-80406583D01*
X110519709Y-80212174D01*
X110519707Y-80212169D01*
X110519706Y-80212163D01*
X110458886Y-80024980D01*
X110458884Y-80024977D01*
X110458884Y-80024975D01*
X110369524Y-79849595D01*
X110253828Y-79690354D01*
X110114646Y-79551172D01*
X109955405Y-79435476D01*
X109955262Y-79435372D01*
X109925670Y-79387081D01*
X109938892Y-79332008D01*
X109965164Y-79309570D01*
X110086171Y-79247915D01*
X110169105Y-79187659D01*
X109437574Y-78456128D01*
X109496853Y-78440245D01*
X109613147Y-78373102D01*
X109708102Y-78278147D01*
X109775245Y-78161853D01*
X109791128Y-78102574D01*
X110522659Y-78834105D01*
X110582915Y-78751170D01*
X110690107Y-78540792D01*
X110763062Y-78316261D01*
X110763065Y-78316248D01*
X110800000Y-78083053D01*
X110800000Y-77846946D01*
X110763065Y-77613751D01*
X110763062Y-77613738D01*
X110690107Y-77389207D01*
X110582917Y-77178833D01*
X110522658Y-77095893D01*
X109791127Y-77827423D01*
X109775245Y-77768147D01*
X109708102Y-77651853D01*
X109613147Y-77556898D01*
X109496853Y-77489755D01*
X109437574Y-77473871D01*
X110169105Y-76742340D01*
X110169106Y-76742340D01*
X110086166Y-76682082D01*
X109965163Y-76620429D01*
X109928380Y-76577362D01*
X109932823Y-76520899D01*
X109955262Y-76494627D01*
X109955400Y-76494526D01*
X109955405Y-76494524D01*
X110114646Y-76378828D01*
X110253828Y-76239646D01*
X110369524Y-76080405D01*
X110458884Y-75905025D01*
X110500840Y-75775898D01*
X110519706Y-75717836D01*
X110519706Y-75717833D01*
X110519709Y-75717826D01*
X110550500Y-75523417D01*
X110550500Y-75326583D01*
X110519709Y-75132174D01*
X110479997Y-75009955D01*
X110484440Y-74953494D01*
X110498046Y-74934766D01*
X110631535Y-74801277D01*
X110683860Y-74779604D01*
X110698289Y-74781025D01*
X110859035Y-74813000D01*
X110859037Y-74813000D01*
X111065964Y-74813000D01*
X111065965Y-74813000D01*
X111268920Y-74772630D01*
X111460098Y-74693441D01*
X111632155Y-74578477D01*
X111778477Y-74432155D01*
X111893441Y-74260098D01*
X111972630Y-74068920D01*
X111984714Y-74008171D01*
X112796000Y-74008171D01*
X112796000Y-74560000D01*
X113616988Y-74560000D01*
X113584075Y-74617007D01*
X113550000Y-74744174D01*
X113550000Y-74875826D01*
X113584075Y-75002993D01*
X113616988Y-75060000D01*
X112796000Y-75060000D01*
X112796000Y-75611828D01*
X112802402Y-75671375D01*
X112802403Y-75671380D01*
X112852645Y-75806087D01*
X112852646Y-75806088D01*
X112938811Y-75921188D01*
X113053911Y-76007353D01*
X113053912Y-76007354D01*
X113188619Y-76057596D01*
X113188624Y-76057597D01*
X113248171Y-76064000D01*
X113800000Y-76064000D01*
X113800000Y-75243012D01*
X113857007Y-75275925D01*
X113984174Y-75310000D01*
X114115826Y-75310000D01*
X114242993Y-75275925D01*
X114300000Y-75243012D01*
X114300000Y-76064000D01*
X114851829Y-76064000D01*
X114911375Y-76057597D01*
X114911380Y-76057596D01*
X115046087Y-76007354D01*
X115046088Y-76007353D01*
X115161188Y-75921188D01*
X115247353Y-75806088D01*
X115247354Y-75806087D01*
X115297596Y-75671380D01*
X115297597Y-75671375D01*
X115304000Y-75611828D01*
X115304000Y-75060000D01*
X114483012Y-75060000D01*
X114515925Y-75002993D01*
X114550000Y-74875826D01*
X114550000Y-74744174D01*
X114541128Y-74711065D01*
X128285500Y-74711065D01*
X128285500Y-74908935D01*
X128295380Y-74958606D01*
X128324101Y-75102996D01*
X128324104Y-75103006D01*
X128399821Y-75285804D01*
X128399823Y-75285807D01*
X128399824Y-75285809D01*
X128509754Y-75450331D01*
X128649669Y-75590246D01*
X128814191Y-75700176D01*
X128814196Y-75700178D01*
X128814195Y-75700178D01*
X128996993Y-75775895D01*
X128996998Y-75775897D01*
X129191065Y-75814500D01*
X129191067Y-75814500D01*
X129388933Y-75814500D01*
X129388935Y-75814500D01*
X129583002Y-75775897D01*
X129765809Y-75700176D01*
X129930331Y-75590246D01*
X130070246Y-75450331D01*
X130180176Y-75285809D01*
X130255897Y-75103002D01*
X130294500Y-74908935D01*
X130294500Y-74711065D01*
X130255897Y-74516998D01*
X130236914Y-74471168D01*
X130180178Y-74334195D01*
X130180177Y-74334193D01*
X130180176Y-74334191D01*
X130070246Y-74169669D01*
X129930331Y-74029754D01*
X129925763Y-74026702D01*
X129873458Y-73991753D01*
X129765809Y-73919824D01*
X129765805Y-73919822D01*
X129765803Y-73919821D01*
X129765804Y-73919821D01*
X129583006Y-73844104D01*
X129582996Y-73844101D01*
X129431219Y-73813911D01*
X129388935Y-73805500D01*
X129191065Y-73805500D01*
X129148781Y-73813911D01*
X128997003Y-73844101D01*
X128996993Y-73844104D01*
X128814195Y-73919821D01*
X128649669Y-74029753D01*
X128649668Y-74029755D01*
X128509755Y-74169668D01*
X128509753Y-74169669D01*
X128399821Y-74334195D01*
X128324104Y-74516993D01*
X128324101Y-74517003D01*
X128298462Y-74645901D01*
X128285500Y-74711065D01*
X114541128Y-74711065D01*
X114515925Y-74617007D01*
X114483012Y-74560000D01*
X115304000Y-74560000D01*
X115304000Y-74008171D01*
X115297597Y-73948624D01*
X115297596Y-73948619D01*
X115247354Y-73813912D01*
X115247353Y-73813911D01*
X115161188Y-73698811D01*
X115046088Y-73612646D01*
X115046087Y-73612645D01*
X114911380Y-73562403D01*
X114911375Y-73562402D01*
X114851829Y-73556000D01*
X114300000Y-73556000D01*
X114300000Y-74376988D01*
X114242993Y-74344075D01*
X114115826Y-74310000D01*
X113984174Y-74310000D01*
X113857007Y-74344075D01*
X113800000Y-74376988D01*
X113800000Y-73556000D01*
X113248171Y-73556000D01*
X113188624Y-73562402D01*
X113188619Y-73562403D01*
X113053912Y-73612645D01*
X113053911Y-73612646D01*
X112938811Y-73698811D01*
X112852646Y-73813911D01*
X112852645Y-73813912D01*
X112802403Y-73948619D01*
X112802402Y-73948624D01*
X112796000Y-74008171D01*
X111984714Y-74008171D01*
X112013000Y-73865965D01*
X112013000Y-73659035D01*
X111981026Y-73498295D01*
X111992075Y-73442748D01*
X112001273Y-73431539D01*
X114450499Y-70982315D01*
X114516392Y-70868186D01*
X114550499Y-70740895D01*
X114550500Y-70740895D01*
X114550500Y-68103231D01*
X114572174Y-68050905D01*
X114583381Y-68041707D01*
X114690331Y-67970246D01*
X114830246Y-67830331D01*
X114940176Y-67665809D01*
X115015897Y-67483002D01*
X115054500Y-67288935D01*
X115054500Y-67091065D01*
X115015897Y-66896998D01*
X114940176Y-66714191D01*
X114830246Y-66549669D01*
X114690331Y-66409754D01*
X114525809Y-66299824D01*
X114525805Y-66299822D01*
X114525803Y-66299821D01*
X114525804Y-66299821D01*
X114343006Y-66224104D01*
X114342996Y-66224101D01*
X114213038Y-66198251D01*
X114148935Y-66185500D01*
X113951065Y-66185500D01*
X113896048Y-66196443D01*
X113757003Y-66224101D01*
X113756993Y-66224104D01*
X113574195Y-66299821D01*
X113409669Y-66409753D01*
X113409668Y-66409755D01*
X113269755Y-66549668D01*
X113269753Y-66549669D01*
X113159821Y-66714195D01*
X113084104Y-66896993D01*
X113084101Y-66897003D01*
X113045500Y-67091066D01*
X113045500Y-67288933D01*
X113084101Y-67482996D01*
X113084104Y-67483006D01*
X113159821Y-67665804D01*
X113159823Y-67665807D01*
X113159824Y-67665809D01*
X113269754Y-67830331D01*
X113409669Y-67970246D01*
X113516613Y-68041703D01*
X113548078Y-68088794D01*
X113549500Y-68103231D01*
X113549500Y-70437033D01*
X113527826Y-70489359D01*
X111293464Y-72723720D01*
X111241138Y-72745394D01*
X111226702Y-72743972D01*
X111116857Y-72722123D01*
X111065965Y-72712000D01*
X110859035Y-72712000D01*
X110818885Y-72719986D01*
X110656086Y-72752368D01*
X110656079Y-72752370D01*
X110464901Y-72831559D01*
X110292845Y-72946522D01*
X110292844Y-72946524D01*
X110146524Y-73092844D01*
X110146522Y-73092845D01*
X110031559Y-73264901D01*
X109952370Y-73456079D01*
X109952368Y-73456086D01*
X109912000Y-73659035D01*
X109912000Y-73865964D01*
X109943972Y-74026702D01*
X109932923Y-74082250D01*
X109923720Y-74093464D01*
X109790235Y-74226949D01*
X109737909Y-74248623D01*
X109715042Y-74245001D01*
X109592836Y-74205293D01*
X109592823Y-74205290D01*
X109398418Y-74174500D01*
X109398417Y-74174500D01*
X109201583Y-74174500D01*
X109201582Y-74174500D01*
X109007176Y-74205290D01*
X109007163Y-74205293D01*
X108819980Y-74266113D01*
X108644595Y-74355475D01*
X108485358Y-74471168D01*
X108376826Y-74579700D01*
X108324500Y-74601374D01*
X108272174Y-74579700D01*
X108250500Y-74527374D01*
X108250500Y-68578256D01*
X108272174Y-68525930D01*
X108324500Y-68504256D01*
X108376826Y-68525930D01*
X108383203Y-68533201D01*
X108451081Y-68621661D01*
X108613339Y-68783919D01*
X108795388Y-68923611D01*
X108994112Y-69038344D01*
X109206113Y-69126158D01*
X109427762Y-69185548D01*
X109427761Y-69185548D01*
X109503596Y-69195532D01*
X109655266Y-69215500D01*
X109655268Y-69215500D01*
X109884732Y-69215500D01*
X109884734Y-69215500D01*
X110112238Y-69185548D01*
X110333887Y-69126158D01*
X110545888Y-69038344D01*
X110744612Y-68923611D01*
X110926661Y-68783919D01*
X111088919Y-68621661D01*
X111228611Y-68439612D01*
X111343344Y-68240888D01*
X111431158Y-68028887D01*
X111490548Y-67807238D01*
X111520500Y-67579734D01*
X111520500Y-67350266D01*
X111490548Y-67122762D01*
X111431158Y-66901113D01*
X111343344Y-66689112D01*
X111228611Y-66490388D01*
X111088919Y-66308339D01*
X110926661Y-66146081D01*
X110844722Y-66083206D01*
X110816405Y-66034159D01*
X110831064Y-65979451D01*
X110880113Y-65951133D01*
X110889772Y-65950500D01*
X123572250Y-65950500D01*
X123624576Y-65972174D01*
G37*
%TD.AperFunction*%
%TD*%
M02*
